<?xml version="1.0" encoding="utf-8"?>
<!-- Generator: Adobe Illustrator 27.5.0, SVG Export Plug-In . SVG Version: 6.00 Build 0)  -->
<svg version="1.1" id="Layer_1" xmlns="http://www.w3.org/2000/svg" xmlns:xlink="http://www.w3.org/1999/xlink" x="0px" y="0px"
	 viewBox="0 0 1500 1500" style="enable-background:new 0 0 1500 1500;" xml:space="preserve">
<g>
	<path style="fill:#4C599F;" d="M522.176,214.379c11.813-5.755,24.245-9.918,36.629-14.194
		c33.431-11.543,67.632-20.011,102.641-25.038c39.877-5.726,79.946-7.62,120.2-5.435c10.236,0.556,20.445,1.391,30.659,2.199
		c2.561,0.203,5.165,0.183,7.544,1.555c0.747,0.431,1.925,0.386,2.836,0.206c1.963-0.388,3.83-0.576,5.586,0.635
		c0.713,0.492,1.546,0.568,2.337,0.351c4.089-1.12,7.728,1.716,11.735,1.324c0.17-0.017,0.389,0.462,0.586,0.71
		c-3.135,2.547-6.879,0.812-10.327,1.412c3.035,1.273,6.133,2.188,9.18,3.25c3.207,1.117,4.387,3.285,2.786,6.474
		c-1.758,3.503-1.973,7.952-6.69,9.616c-2.266,0.799-0.867,2.67-0.072,3.994c-0.071-0.578,0.112,0.34,0.079,0.215
		c-0.943-3.557,0.363-5.392,3.385-2.802c3.855,3.305,7.732,3.918,12.553,3.584c3.85-0.266,7.438,2.137,11.08,3.468
		c3.185,1.165,6.217,2.708,9.524,3.667c3.765,1.091,4.351,3.453,1.418,5.972c-7.248,6.225-7.384,7.744,0.535,14.038
		c1.144,0.909,2.148,1.994,3.163,3.048c2.809,2.915,5.733,3.596,9.629,1.703c7.761-3.77,16.097-2.534,23.935-0.771
		c7.945,1.787,16.486,2.428,23.221,8.083c3.328,2.794,5.942,6.003,7.471,10.059c0.866,2.299,1.8,4.523,3.56,6.326
		c2.494,2.554,1.819,5.024-0.466,7.241c-2.693,2.613-5.258,5.302-7.345,8.452c-1.824,2.752-2.468,5.515-1.455,8.768
		c1.613,5.18,2.226,10.57,1.582,15.934c-0.665,5.537,1.451,9.906,4.913,13.76c2.869,3.194,5.712,6.207,5.688,10.922
		c-0.011,2.25,1.595,2.371,2.988,1.205c4.446-3.722,8.246-8.209,9.408-13.889c0.896-4.38-1.786-8.099-5.291-10.835
		c-10.592-8.27-9.857-16.851-2.426-24.128c1.391-1.362,2.992-2.511,3.953-4.279c1.608-2.959,2.831-5.582-0.167-8.783
		c-2.72-2.905-1.821-4.835,1.96-5.928c3.427-0.991,6.753-1.239,9.587,1.534c3.148,3.079,7.191,2.169,10.689,1.691
		c12.052-1.645,21.675,4.416,31.603,9.41c2.972,1.495,4.388,5.154,4.982,8.138c1,5.024,4.205,8.278,7.244,11.799
		c1.193,1.382,2.723,2.656,1.845,4.647c-1.612,3.655-1.624,7.6-2.431,11.398c-1.592,7.488,2.949,14.16,10.464,15.171
		c1.784,0.24,3.192-0.269,4.336-1.622c1.241-1.468,0.929-2.893,0.151-4.507c-3.417-7.08-2.102-9.318,5.73-9.767
		c2.012-0.115,3.813-0.471,5.394-1.854c2.933-2.565,6.359-1.326,7.604,1.124c2.344,4.612,6.189,4.429,9.826,4.055
		c4.387-0.451,7.641,1.112,10.573,3.864c5.611,5.268,12.177,6.906,19.84,7.802c9.939,1.162,19.974,4.194,23.103,16.107
		c0.635,2.416,2.218,4.282,3.986,6.036c10.15,10.067,20.161,20.272,30.392,30.258c2.697,2.633,4.502,5.972,6.862,8.873
		c3.109,3.821,7.243,6.498,10.837,9.768c6.889,6.267,9.434,15.038,12.314,23.484c0.845,2.478,1.41,4.974,3.132,7.034
		c1.066,1.275,1.921,2.779,1.82,4.434c-0.292,4.776,2.802,7.483,5.546,10.813c7.921,9.617,18.456,16.936,24.55,28.146
		c3.406,6.266,4.39,12.289,0.582,18.923c-4.001,6.969-0.59,12.12,7.526,12.115c7.787-0.005,13.168,7.172,10.702,14.602
		c-0.862,2.596-0.564,4.494,0.891,6.793c4.909,7.755,10.522,14.65,17.982,20.291c4.652,3.518,7.978,9.125,6.8,15.405
		c-1.439,7.674,0.302,14.862,1.707,22.181c1.005,5.232,1.417,10.616,4.793,15.169c1.329,1.792,0.954,4.072-0.156,6.047
		c-1.207,2.147-1.086,4.365-0.512,6.632c0.31,1.224,0.916,2.239,2.355,1.798c3.204-0.983,4.887,1.077,6.464,3.176
		c2.828,3.762,6.191,4.821,10.668,2.985c2.377-0.975,4.862-1.898,7.48-2.174c5.203-0.55,8.509,2.064,8.929,7.282
		c0.458,5.679,1.006,11.339,2.204,16.916c0.67,3.118-0.229,5.814-2.156,8.2c-3.884,4.81-4.312,10.42-3.711,16.206
		c0.425,4.096,2.841,6.845,6.643,8.306c2.54,0.976,4.555,2.472,5.775,4.949c2.164,4.393,0.845,7.783-3.927,8.8
		c-3.694,0.787-4.694,2.975-4.713,6.255c-0.036,6.347,0.032,12.695-0.033,19.042c-0.052,5.078-0.9,10.035-2.486,14.863
		c-0.782,2.381-1.916,4.656-4.168,5.824c-4.227,2.193-4.805,6.043-4.526,9.989c0.267,3.771,0.17,7.445-0.373,11.167
		c-0.328,2.249-0.582,4.709,0.514,6.732c2.001,3.693,1.623,7.474,1.371,11.393c-0.195,3.035-0.842,5.647-2.874,8.049
		c-2.251,2.661-3.337,5.611-0.204,8.614c0.937,0.897,1.871,2.742,1.057,3.503c-3.218,3.01-2.278,6.9-2.982,10.497
		c-0.639,3.259-5.251,4.348-9.576,2.642c-1.761-0.695-3.369-2.524-5.404-1.329c-3.07,1.803-6.326,3.561-8.329,6.611
		c-2.199,3.348-0.031,8.851,3.693,12.49c4.076,3.982,8.993,6.956,12.807,11.205c1.342,1.495,3.082,2.33,4.969,2.965
		c7.845,2.64,10.246,6.626,7.602,14.459c-2.071,6.135-3.418,12.243-2.729,18.641c0.748,6.947-0.39,13.601-2.184,20.242
		c-2.409,8.918-6.442,16.618-15.052,21.125c-2.554,1.337-3.801,3.254-2.803,6.413c2.592,8.211,1.942,16.483-0.78,24.469
		c-3.95,11.59-5.948,23.647-9.046,35.437c-0.748,2.846-1.471,5.638-2.889,8.248c-7.191,13.234-11.017,27.804-16.491,41.721
		c-3.98,10.118-10.638,17.949-19.479,24.333c-6.437,4.647-10.792,11.344-13.108,18.976c-2.111,6.955-5.107,13.237-9.676,18.959
		c-6.684,8.37-12.665,17.271-20.316,24.896c-4.244,4.23-8.341,7.638-14.841,6.43c-3.447-0.64-5.255,1.468-7.393,4.199
		c-6.69,8.547-7.287,18.745-8.99,28.704c-0.305,1.781-0.81,3.52-1.672,5.083c-6.074,11.024-13.391,21.101-23.723,28.509
		c-10.006,7.174-21.309,12.539-29.908,21.68c-1.353,1.438-3.29,2.368-5.302,2.109c-3.91-0.502-6.881,1.203-9.841,3.389
		c-3.935,2.906-8.958,2.539-13.411,4.001c-11.863,3.894-21.13,11.793-31.323,18.328c-6.355,4.075-10.119,10.972-16.849,14.529
		c-2.061,1.089-4.044,2.088-6.454,1.684c-1.697-0.284-3.212,0.017-4.48,1.306c-1.081,1.098-2.357,1.334-3.968,1.309
		c-4.925-0.078-9.073,2.344-13.124,4.796c-0.775,0.469-1.128,1.876-2.007,2.053c-8.639,1.744-12.089,9.731-17.852,14.875
		c-5.721,5.106-12.92,5.781-19.664,7.986c-9.437,3.086-18.071,7.924-26.371,13.254c-2.768,1.777-5.327,3.636-8.593,4.319
		c-2.403,0.502-4.769,1.276-6.815,2.605c-7.678,4.991-16.183,5.324-24.899,4.714c-2.597-0.182-5.35-0.599-7.704,0.635
		c-6.507,3.411-11.931,0.964-17.066-2.898c-1.858-1.398-3.965-2.216-5.92-3.366c-4.692-2.761-7.848-6.401-6.888-12.283
		c0.407-2.493,0.038-4.025-2.985-4.156c-2.632-0.115-4.11-2.131-4.578-4.45c-2.817-13.943-4.875-27.904,1.093-41.617
		c0.553-1.27,0.854-2.432,0.281-3.73c-4.362-9.879-4.04-20.349-3.438-30.729c0.989-17.074,1.729-34.24-0.678-51.115
		c-2.271-15.922-1.027-31.758-1.368-47.614c-0.209-9.69,2.385-19.341,2.011-29.145c-0.049-1.287,0.4-2.598,0.943-3.772
		c4.255-9.19,3.008-18.784,2.068-28.329c-0.78-7.921-2.546-15.736-2.311-23.77c0.107-3.642,1.611-6.118,4.819-7.818
		c6.071-3.216,6.045-3.277,4.102-9.872c-0.217-0.737-0.174-1.659-1.36-2.033c-1.35,1.84-0.13,3.666,0.079,5.467
		c0.117,1.015,0.091,2.035-0.921,2.562c-1.139,0.594-2.228,0.277-3.097-0.636c-1.522-1.598-2.29-3.57-2.464-5.722
		c-0.821-10.175-1.545-20.359-2.262-30.541c-0.5-7.097,3.661-12.709,4.729-19.257c0.522-3.204,0.366-5.974-0.691-9.005
		c-2.467-7.072-3.606-14.493-4.685-21.864c-0.767-5.241,1.46-7.619,6.639-8.208c17.153-1.952,34.37-2.39,51.615-2.011
		c3.286,0.072,6.411,1.084,9.549,1.916c7.333,1.943,14.737,2.592,22.243,1.376c4.289-0.695,7.541,0.939,10.468,3.921
		c3.888,3.961,5.372,4.102,10.256,1.401c1.993-1.102,3.999-2.18,5.961-3.342c3.614-2.142,6.292-5.358,6.23-9.378
		c-0.133-8.7,3.925-16.395,5.086-24.75c0.632-4.55,2.503-8.825,4.771-12.75c3.183-5.508,5.789-11.397,7.978-17.188
		c2.201-5.824,4.028-12.546-0.047-19.108c-5.139-8.277-4.667-10.765,1.682-18.113c1.383-1.6,1.861-3.367,1.884-5.375
		c0.042-3.743,0.045-7.487,0.015-11.23c-0.03-3.674,1.007-6.927,2.769-10.198c2.919-5.418,4.383-11.514,7.409-16.928
		c1.049-1.876,1.894-3.822,4.106-4.575c2.752-0.937,3.495-3.033,3.668-5.698c0.378-5.816,1.357-11.487-2.376-16.948
		c-2.495-3.65-4.943-6.726-9.312-8.018c-3.262-0.964-5.823-3.203-7.398-6.074c-3.889-7.09-10.519-7.626-17.29-7.444
		c-6.502,0.174-12.852,1.884-19.292,2.764c-0.484,0.066-1.065,0.075-1.405,0.367c-7.596,6.534-17.272,5.772-26.227,7.596
		c-5.703,1.162-10.851-1.529-16.34-1.881c-7.746-0.497-15.343-1.955-23.218-0.083c-6.972,1.657-14.271,0.882-21.4,0.412
		c-4.448-0.293-7.669-5.353-7.133-10.63c0.33-3.242,0.751-6.462,0.592-9.727c-0.143-2.955-0.283-6.155-2.134-8.411
		c-7.294-8.891-5.727-18.812-4.015-28.882c1.244-7.32,5.034-14.073,4.66-21.768c-0.085-1.747,0.723-3.675,2.123-4.814
		c5.546-4.51,5.72-10.864,5.432-16.985c-0.385-8.183,2.787-14.009,8.525-19.723c4.95-4.929,9.412-5.894,15.579-3.531
		c6.061,2.322,12.471,3.609,18.637,5.711c9.868,3.365,19.974,1.584,29.925,0.26c5.049-0.671,9.943-1.281,14.996-0.212
		c11.447,2.42,21.761-1.878,32.13-5.697c1.523-0.561,2.957-1.674,4.567-1.638c6.646,0.146,9.667-3.72,12.026-9.378
		c2.237-5.364,5.279-10.435,9.316-14.806c3.031-3.282,4.841-7.321,6.225-11.519c3.111-9.436,5.5-19.049,6.751-28.923
		c0.56-4.415,0.511-8.579-1.992-12.688c-2.644-4.341-2.323-9.269,0.425-13.464c2.807-4.284,5.67-8.82,11.235-10.22
		c0.968-0.244,2.222-0.745,1.629-1.891c-3.529-6.818-1.357-15.326-6.495-21.648c-0.715-0.879-1.254-1.911-2.098-2.686
		c-6.694-6.15-8.438-14.303-9.176-22.828c-0.196-2.262-0.187-4.567-0.005-6.831c0.887-11.038-0.525-21.834-7.536-30.527
		c-6.817-8.452-12.37-18.553-23.374-22.818c-3.307-1.282-6.048-3.136-7.674-6.395c-0.289-0.58-0.665-1.16-1.16-1.562
		c-9.053-7.35-17.889-15.076-29.842-17.479c-2.655-0.534-5.206,0.088-7.692,0.839c-7.359,2.221-14.745,2.35-22.174,0.501
		c-10.005-2.49-20.47-1.099-30.459-3.609c-8.022-2.016-16.307-2.827-24.126-5.834c-8.107-3.117-15.076,0.268-21.244,5.183
		c-7.145,5.693-15.329,7.204-24.066,7.203c-0.82,0-1.71-0.046-2.364-0.504c-6.196-4.342-12.914-3.48-19.742-2.18
		c-3.506,0.667-7.72,5.647-7.291,9.048c0.304,2.406,1.94,3.217,4.16,3.16c3.286-0.083,6.44-0.739,9.5-1.99
		c2.709-1.107,5.345-2.424,8.158-3.249c1.885-0.553,3.792-0.279,4.377,1.872c0.623,2.29-1.155,3.116-2.996,3.612
		c-1.1,0.297-2.273,0.251-3.367,0.566c-3.145,0.907-6.02,2.192-7.662,6.037c3.451,0.29,6.531-0.561,9.524,0.078
		c2.578,0.551,5.312,1.085,5.981,4.186c0.64,2.965-1.567,4.355-3.673,5.698c-5.22,3.329-10.698,5.879-16.695,7.748
		c-10.563,3.293-21.216,6.263-31.818,9.408c-8.573,2.543-17.285,2.95-25.843-0.328c-2.493-0.955-5.119-1.203-7.671-1.273
		c-7.483-0.205-15.019-1.886-22.384,1.516c-3.608,1.667-8.232,3.446-11.448-0.11c-3.412-3.772-1.613-8.631-0.384-13.011
		c0.651-2.319,2.348-3.895,4.5-4.88c1.974-0.903,2.766-2.498,3.388-4.467c1.118-3.538,0.583-4.945-3.659-5.705
		c-6.928-1.241-14.118-2.965-16.493-11.353c-0.521-1.84-1.937-3.374-3.034-4.99c-3.657-5.382-9.813-6.307-15.031-2.182
		c-2.555,2.02-4.569,4.643-7.107,6.688c-4.314,3.475-7.871,3.473-11.614-0.519c-5.135-5.476-11.448-9.641-16.464-15.234
		c-1.642-1.831-3.803-3.009-6.08-3.987c-5.011-2.153-6.847-1.457-6.618,3.929c0.202,4.768-0.148,9.555,0.244,14.245
		c0.74,8.84,7.202,14.564,16.085,15.242c3.211,0.245,6.391-0.082,8.992,2.736c1.631,1.767,3.562,0.302,5.171-0.943
		c4.003-3.098,5.471-3.024,9.157,0.476c1.301,1.235,2.46,3.052,4.14,3.318c9.492,1.505,10.363,9.85,12.846,16.489
		c2.504,6.694,2.433,6.837,9.448,6.839c7.816,0.002,15.383,0.515,20.586,8.329c6.566,9.862,6.125,19.916-2.436,28.461
		c-1.383,1.381-2.544,2.966-3.969,4.307c-3.44,3.237-6.698,4.075-10.593,1.48c-3.988-2.656-9.357-1.669-12.815-5.509
		c-0.846-0.939-2.876-0.475-3.407,0.796c-2.039,4.879-6.971,7.21-9.703,11.468c-3.022,4.71-4.357,10.156-6.927,15.051
		c-0.794,1.513-0.229,2.832,0.708,4.063c3.233,4.248,2.076,8.553-0.677,12.182c-4.59,6.052-6.979,13.165-10.335,19.797
		c-2.28,4.506-4.479,9.042-7.274,13.238c-2.067,3.103-4.842,5.407-8.916,4.841c-2.768-0.384-3.961,1.036-4.405,3.371
		c-0.901,4.736-3.461,8.266-7.252,11.171c-4.771,3.656-5.253,9.133-4.154,14.234c1.605,7.448,1.089,14.831,1.117,22.278
		c0.016,4.392-0.881,8.362-3.207,12.056c-5.563,8.837-8.715,18.708-9.159,28.902c-0.457,10.478-2.333,21.175,2.735,31.534
		c2.782,5.687,3.318,12.374,5.696,18.491c2.324,5.978-0.356,12.558-2.74,18.358c-1.901,4.625-4.134,8.486-1.106,13.688
		c1.487,2.556,1.204,6.371,0.981,9.539c-0.254,3.612-3.682,4.955-6.6,5.713c-6.741,1.749-13.517,3.734-20.537,3.812
		c-13.826,0.152-27.594,1.244-41.378,2.105c-4.533,0.283-7.274,2.881-10.303,6.302c-6.099,6.889-3.021,14.928-4.091,22.355
		c-0.918,6.369-0.534,12.938,1.827,19.25c1.73,4.625,1.642,9.819,1.203,14.488c-0.734,7.81,1.124,15.514-0.124,23.313
		c-0.708,4.422-0.551,9.089,0.513,13.59c0.225,0.949,0.354,1.995,0.063,2.91c-3.24,10.17-0.023,20.311-0.059,30.457
		c-0.033,9.254,0.702,18.507,0.174,27.749c-0.395,6.922-5.676,11.151-9.756,15.842c-1.795,2.064-9.986-1.056-11.354-4.157
		c-1.893-4.291-3.849-8.586-3.943-13.482c-0.085-4.423-4.704-9.461-8.911-10.32c-2.159-0.44-2.971,0.944-3.582,2.494
		c-1.737,4.41-3.217,8.877-2.65,13.75c0.612,5.254-0.365,9.956-2.625,14.998c-4.399,9.816-1.358,25.965,12.006,31.001
		c1.176,0.443,2.137,0.254,3.273-0.063c5.741-1.601,8.986-0.525,12.089,4.229c1.712,2.624,3.214,4.195,5.815,0.96
		c0.98-1.219,2.542-1.55,4.026-1.284c2.923,0.524,5.865-0.086,8.751,0.261c2.195,0.263,3.782-0.045,4.894-2.106
		c0.821-1.52,2.516-1.97,3.794-2.521c0.316-0.53,0.367-0.867,0.149-1.113c-2.16-2.426-5.063-4.805-1.843-8.271
		c2.721-2.929,8.486-2.359,11.437,0.885c0.326,0.359,0.568,0.793,0.826,1.208c0.763,1.227,1.713,2.038,3.2,1.169
		c1.286-0.752,1.95-2.068,1.198-3.313c-2.845-4.71-0.583-7.567,3.268-10.05c1.655-1.067,2.138-2.772,2.064-4.684
		c-0.116-2.989,1.477-4.44,4.327-4.852c14.072-2.037,28.193-1.959,42.306-0.748c2.692,0.231,6.94-0.035,7.117,3.636
		c0.174,3.625-4.04,3.454-6.689,4.359c-0.765,0.261-1.596,0.322-2.367,0.586c-2.328,0.798-3.039,1.932-0.682,3.605
		c1.189,0.844,2.6,1.41,3.508,2.605c1.195,1.571,1.428,4.687,0.078,4.571c-5.094-0.436-2.498,3.139-3.101,4.95
		c-0.811,2.433-2.478,4.158-4.36,5.753c-2.883,2.444-3.012,5.041-0.784,8.103c4.115,5.655,8.616,9.961,16.556,8.929
		c4.319-0.562,6.556,1.968,6.699,6.495c0.141,4.484,1.415,8.632,2.756,12.825c1.056,3.301,2.586,3.213,4.875,1.134
		c2.26-2.053,3.604-4.508,4.311-7.465c1.098-4.587,1.748-9.286,3.301-13.76c0.559-1.61,1.474-3.087,3.473-2.761
		c1.645,0.268,2.583,1.675,2.552,3.187c-0.18,8.892,4.436,16.814,4.557,25.833c0.142,10.606-0.287,21.084-1.743,31.53
		c-2.349,16.857-1.742,33.719-0.813,50.623c0.606,11.03,0.462,22.095,0.359,33.14c-0.061,6.536,1.128,12.945,1.309,19.441
		c0.018,0.646,0.091-0.157,0.057,0.48c-0.726,13.43,1.963,26.805,0.672,40.233c-0.35,3.639,0.541,7.131,0.872,10.673
		c0.988,10.57-1.987,20.644-3.39,30.913c-0.154,1.128-0.51,2.245-0.474,3.38c0.543,17.163-3.009,34.265-0.331,51.499
		c1.2,7.722,0.193,15.579-1.906,23.192c-0.345,1.251-0.526,2.754-2.26,2.673c-1.391-0.065-1.638-1.371-1.989-2.453
		c-3.358-10.333-2.86-20.836-1.24-31.351c2.253-14.623,0.458-28.847-4.288-42.716c-1.448-4.231-6.923-5.585-10.601-2.683
		c-5.107,4.031-9.427,9.069-13.219,14.212c-3.124,4.238-1.407,10.103-1.096,15.259c0.73,12.084,0.862,24.025-5.573,34.97
		c-1.605,2.729-2.051,5.571-1.318,8.881c1.268,5.724-3.41,10.363-9.171,9.165c-8.963-1.864-17.147-5.906-25.249-9.996
		c-4.034-2.036-7.685-4.558-12.326-5.56c-5.888-1.272-7.057-5.734-3.358-10.551c-4.081-0.393-5.558-3.047-5.436-6.676
		c0.153-4.535-1.632-6.561-6.153-8.292c-8.373-3.207-17.006-5.431-25.446-8.305c-11.628-3.958-19.823-12.235-25.739-22.748
		c-2-3.554-4.413-6.367-8.012-8.216c-7.62-3.916-14.382-9.58-23.212-11.026c-4.903-0.803-9.692-1.219-14.35,0.983
		c-2.59,1.224-4.7,0.576-6.489-1.592c-1.971-2.388-4.163-4.572-6.437-6.671c-1.403-1.294-2.975-2.081-4.868-1.112
		c-1.941,0.995-3.851,2.261-3.549,4.747c0.357,2.944,0.543,5.706-2.86,6.864c-3.534,1.203-7.134,0.429-9.492-2.168
		c-3.153-3.474-8.036-4.996-10.178-9.594c-0.75-1.61-2.948-1.931-4.62-2.522c-10.966-3.877-16.862-12.684-21.83-22.384
		c-0.645-1.26-1.531-2.794,0.085-3.938c1.414-1.001,2.867-0.306,4.01,0.684c2.218,1.919,4.575,3.646,6.899,5.427
		c3.646,2.794,7.879,2.822,12.102,2.839c1.655,0.006,3.365-0.658,3.71-2.562c0.343-1.894-1.391-2.221-2.657-2.94
		c-5.919-3.358-11.976-6.592-14.793-13.394c-0.248-0.598-0.561-1.288-1.079-1.608c-9.782-6.039-10.674-17.371-15.558-26.298
		c-2.498-4.565-4.207-9.417-8.996-12.4c-2.72-1.694-3.868-4.735-3.875-8.045c-0.002-1.141-0.079-2.3,0.177-3.407
		c1.517-6.569,1.435-12.341-3.801-17.935c-4.537-4.847-9.042-8.752-15.704-9.777c-2.673-0.412-4.904-1.773-6.6-3.868
		c-2.657-3.281-5.121-6.656-9.027-8.744c-2.338-1.25-2.449-4.091-2.999-6.445c-1.016-4.343-2.888-7.242-8.092-7.469
		c-3.633-0.159-7.051-1.572-10.972-0.683c-2.981,0.676-4.75-2.359-6.104-4.804c-1.494-2.697-2.512-4.337-4.467-0.145
		c-1.875,4.019-3.959,4.075-7.053,0.869c-5.532-5.731-10.946-11.54-13.883-19.159c-0.349-0.905-0.934-1.745-1.04-2.72
		c-1.458-13.446-6.43-26.224-7.546-39.743c-0.188-2.281-0.208-4.522-0.171-6.8c0.061-3.741-1.599-5.209-5.403-5.187
		c-5.413,0.031-7.666-1.462-7.412-7.081c0.281-6.228-3.857-11.433-3.08-17.601c0.119-0.943-0.652-1.838-1.355-2.523
		c-6.905-6.725-9.462-15.273-10.4-24.533c-0.656-6.474-3.165-12.283-7.022-17.429c-2.483-3.313-2.992-6.548-0.524-9.836
		c3.734-4.972,2.244-10.761,2.812-16.214c0.124-1.195-0.973-2.862,0.459-3.518c3.786-1.735,2.639-3.997,1.27-6.663
		c-1.188-2.315-1.46-4.982-2.251-7.464c-0.846-2.658-0.158-4.913,2.518-6.099c3.21-1.422,3.718-3.757,2.729-6.807
		c-0.453-1.396-0.87-2.87-0.477-4.32c1.453-5.366-1.22-8.852-5.417-11.351c-4.096-2.44-5.698-5.969-5.916-10.51
		c-0.295-6.16-1.595-12.276-0.738-18.487c0.187-1.357-0.232-2.594-1.16-3.604c-4.858-5.289-5.572-11.891-5.928-18.608
		c-0.412-7.773,0.08-15.579-0.895-23.335c-0.243-1.931-0.226-3.922,0.131-5.845c2.879-15.508,2.05-31.085,0.902-46.665
		c-0.434-5.883,0.746-7.343,6.924-7.714c5.373-0.323,5.894-4.937,7.642-8.408c1.284-2.55,0.736-4.457-2.138-5.916
		c-2.374-1.205-2.071-4.048-1.706-6.195c0.811-4.777-0.068-9.257-1.03-13.909c-1.518-7.344-2.009-14.83,0.267-22.192
		c0.539-1.743-0.382-3.151-0.796-4.699c-1.915-7.157,0.619-12.318,7.5-15.131c1.583-0.647,2.768-1.593,3.756-2.951
		c2.4-3.299,3.926-7.125,6.347-10.412c0.704-0.956,0.928-2.174,0.547-3.275c-2.157-6.233,0.739-11.672,3.321-16.755
		c2.337-4.601,4.067-9.17,4.671-14.229c0.425-3.561,1.538-6.318,5.409-7.837c4.134-1.623,7.178-4.498,5.571-9.815
		c-0.611-2.022,0.099-3.878,2.008-5.064c2.91-1.807,4.39-4.577,5.774-7.624c1.543-3.397,3.837-6.419,6.754-8.861
		c3.027-2.534,5.335-5.687,7.674-8.815c1.734-2.318,2.729-4.792,1.691-7.742c-1.231-3.496,0.526-5.691,3.462-7.059
		c3.832-1.786,6.689-4.308,8.588-8.224c1.432-2.953,3.852-5.219,7.528-5.538c1.785-0.155,3.084-1.259,3.425-3.024
		c1.061-5.499,4.383-10.343,4.126-16.283c-0.231-5.352,0.771-10.684,1.776-15.968c0.226-1.188,0.441-2.912-1.218-3.257
		c-1.365-0.284-1.705,1.273-2.152,2.257c-1.366,3.009-1.835,6.191-1.915,9.495c-0.088,3.642-2.205,6.061-4.723,5.403
		c-3.283-0.857-4.219-3.496-3.616-6.5c1.233-6.141,4.28-11.607,7.233-17.011c2.847-5.211,5.548-10.638,10.44-14.447
		c0.877-0.683,1.482-1.772,2.549-2.223c10.036-4.237,15.987-12.795,22.439-20.904c4.931-6.198,10.267-11.828,16.874-16.621
		c12.755-9.252,27.525-14.588,40.816-22.7c2.895-1.767,6.376-2.493,9.78-2.879c4.829-0.547,7.319,1.537,7.917,6.441
		c0.335,2.75,0.432,5.566,0.099,8.286c-0.757,6.184,3.766,11.025,4.011,16.93c0.04,0.958,1.301,1.367,2.111,1.894
		c2.282,1.485,3.464,3.652,2.79,6.244c-0.727,2.797,0.323,3.472,2.823,3.477c2.222,0.005,3.835,1.676,5.778,2.466
		c3.206,1.303,4.6,0.603,4.144-2.708c-0.645-4.679,0.192-9.214,0.292-13.692c0.109-4.842-0.968-11.403-7.401-14.237
		c-3.526-1.553-4.318-6.204-1.996-9.748c4.191-6.395,7.16-13.403,10.33-20.292c3.964-8.614,10.051-15.352,17.444-21.025
		c1.775-1.362,3.268-2.473,2.869-5.082c-0.384-2.509,1.244-4.255,3.484-4.54c4.774-0.608,9.289-2.907,14.39-1.665
		c3.571,0.869,6.83-0.761,8.992-3.674c1.734-2.337,2.865-5.111,5.703-6.481c0.764-0.369,1.465-1.425,0.586-1.888
		c-2.705-1.423-3.373-4.239-4.986-6.406c-1.351-1.815-3.126-1.268-4.706,0.002c-4.686,3.77-10.078,6.549-14.518,10.708
		c-3.388,3.174-5.809,2.165-6.655-2.377c-0.269-1.443,0.015-2.969-0.314-4.374c-1.71-7.306-1.104-9.454,8.987-11.333
		c3.858-0.718,7.805-0.6,11.681-0.109c3.686,0.466,5.926-0.869,8.093-3.951c3.58-5.091,6.43-10.417,8.832-16.163
		c3.077-7.361,8.558-8.81,15.488-5.034c2.753,1.5,3.852,3.645,2.495,6.434c-1.097,2.254-1.294,4.683-2.087,6.954
		c-1.205,3.454,0.561,5.046,3.387,5.689c2.411,0.548,4.715,0.845,6.451,2.932c1.507,1.812,3.264,0.971,4.74-0.216
		c1.57-1.262,1.411-2.815,0.323-4.325c-1.897-2.635-3.214-5.642-5.462-8.069c-2.108-2.276-2.696-5.244-0.614-7.576
		c5.54-6.203,9.748-13.387,15.045-19.753c3.559-4.277,8.382-6.027,13.614-6.883c2.565-0.42,5.128-0.925,7.727-1.122
		c3.011-0.229,5.166-1.76,6.698-4.293c1.093-1.807,1.931-3.784,3.377-5.359c1.639-1.786,1.972-3.691,0.65-5.772
		c-2.055-3.235-0.949-5.795,1.544-8.218c5.4-5.249,11.673-8.34,19.197-9.736c9.854-1.827,20.07-1.612,29.606-5.25
		c2.76-1.053,5.281-2.542,7.858-3.908c8.429-4.464,17.627-3.891,26.633-3.982c5.72-0.058,10.017,7.268,7.991,12.572
		c-1.7,4.449,2.277,10.268,7.654,11.389c10.027,2.091,18.538-0.634,25.951-7.604c1.881-1.769,0.258-3.313,0.474-4.937
		c0.756-5.657,0.723-5.833-5.421-5.277c-6.175,0.559-11.89-1.551-17.758-2.675c-2.552-0.489-5.067-2.308-5.056-5.26
		c0.012-3.169,3.089-4.715,5.437-4.643c7.941,0.243,15.226-2.955,22.963-3.683c8.334-0.784,16.716-1.249,24.912-3.339
		c6.918-1.765,13.584,0.598,20.084,2.531c3.499,1.041,3.577,3.989,0.453,6.206c-3.177,2.256-6.474,4.378-10.44,5.12
		c-4.187,0.784-8.064,2.528-12.013,4.042c-1.759,0.675-3.26,1.546-3.24,3.751c0.018,1.96-0.991,3.378-2.428,4.571
		c-2.202,1.827-1.801,3.219,0.734,4.218c2.122,0.837,4.287,2.002,6.527,1.907c10.825-0.463,20.697,3.919,31.036,5.881
		c7.624,1.447,14.819,1.573,21.241-3.627c1.693-1.371,3.833-1.683,5.934-2.051c2.526-0.442,5.137-0.741,7.675-2.941
		c-3.598-1.528-6.812-2.713-10.188-3.461c-1.228-0.272-2.834-0.056-3.101-1.749c-0.253-1.606,1.345-1.996,2.275-2.836
		c3.18-2.874,6.466-4.923,10.81-2.227c0.479,0.297,1.284,0.16,2.223-1.14c-6.984-1.139-11.76-5.279-15.809-10.487
		c-1.043-1.341-2.82-1.504-4.429-1.815c-1.653-0.319-3.324-0.773-3.237-2.928c0.077-1.914,1.471-2.915,3.117-3.311
		c5.83-1.405,11.604-3.25,17.727-3.027c-15.06-0.241-30.13-1.073-45.191,0.251c-11.333,0.996-22.696,1.51-34.043,2.256
		c-19.348,1.272-38.395,4.594-57.49,7.73c-11.401,1.873-22.215,6.108-33.795,7.35c-7.546,0.81-14.893,3.601-22.045,6.162
		c-17.117,6.129-34.834,10.537-51.503,17.958C526.999,215.254,524.503,217.176,522.176,214.379z"/>
	<path style="fill:#4A579F;" d="M522.176,214.379c2.607,0.942,4.726-0.603,6.951-1.436c10.922-4.091,21.823-8.238,32.728-12.375
		c1.733-0.657,3.618,0.007,5.304-0.535c2.915-0.937,5.798-1.888,8.581-3.32c5.197-2.673,11.182-3.163,16.622-5.264
		c6.094-2.353,12.535-3.079,18.938-3.865c3.25-0.399,6.188-1.762,9.322-2.513c9.096-2.179,18.211-4.115,27.472-5.452
		c4.471-0.646,8.873-1.708,13.388-2.197c6.573-0.711,13.1-1.844,19.67-2.595c10.943-1.251,22.035-0.99,32.924-2.205
		c17.507-1.954,34.996-1.561,52.508-1.729c3.811-0.036,7.43,0.979,11.768,1.598c-1.557,1.628-2.9,1.356-4.081,1.312
		c-6.417-0.24-12.447,1.876-18.641,2.985c-0.472,0.085-0.962,0.217-1.375,0.449c-0.758,0.425-1.215,1.133-1.119,2.004
		c0.105,0.949,0.855,1.464,1.714,1.349c4.205-0.563,6.376,1.857,8.62,4.988c2.781,3.88,6.611,6.618,11.72,6.823
		c1.404,0.056,2.71,0.454,2.888,2.035c0.223,1.99-1.511,2.315-2.866,2.665c-1.909,0.493-3.466-0.574-4.933-1.61
		c-0.991-0.7-2.24-1.52-2.902-0.171c-1.317,2.686-4.044,3.389-6.312,5.081c4.844-1.109,8.123,3.714,12.771,2.835
		c0.956-0.181,1.912,0.491,2.133,1.604c0.226,1.14-0.635,1.802-1.387,2.386c-2.554,1.981-5.689,2.368-8.717,2.647
		c-2.599,0.239-4.744,1.037-6.469,2.916c-2.139,2.33-4.857,2.658-7.855,3.148c-11.058,1.809-20.986-2.504-31.179-5.265
		c-2.946-0.798-5.798-0.756-8.671-0.652c-4.737,0.171-8.951-1.421-13.074-3.337c-2.892-1.344-2.878-1.962-0.558-4.015
		c0.731-0.647,1.398-1.397,2.214-1.909c1.407-0.882,2.186-1.827,1.377-3.584c-0.854-1.854-0.187-3.198,1.768-3.745
		c5.297-1.482,10.112-4.339,15.697-5.089c3.944-0.53,6.873-3.54,10.272-5.403c1.264-0.693,0.95-1.97-0.174-2.789
		c-0.648-0.472-1.42-1.038-2.16-1.075c-5.188-0.26-10.02-2.834-15.313-2.317c-1.126,0.11-2.327,0.026-3.361,0.399
		c-3.78,1.364-7.457,3.129-11.644,1.586c-0.563-0.207-1.408-0.196-1.919,0.086c-5.701,3.142-12.217,0.899-18.1,2.79
		c-0.911,0.293-2.064,0.093-2.818,0.572c-3.045,1.935-6.163,2.423-9.676,1.467c-1.721-0.468-3.589-0.046-5.155,0.975
		c-1.286,0.838-3.524,0.951-3.381,3.004c0.117,1.685,1.794,2.599,3.116,3.531c0.525,0.37,1.157,0.815,1.748,0.827
		c6.427,0.128,12.492,3.904,19.135,1.88c1.809-0.551,3.534,0.331,5.197,0.777c2.934,0.787,3.356,2.559,0.932,4.317
		c-2.218,1.61-2.557,2.682-0.202,4.329c1.229,0.859,1.089,2.322-0.229,2.671c-4.174,1.103-6.465,4.779-9.913,6.855
		c-2.016,1.214-3.979,1.876-6.339,2.097c-4.012,0.376-7.96,0.5-11.967-0.042c-3.019-0.408-5.73-0.946-6.987-4.238
		c-0.328-0.858-1.208-1.506-1.838-2.248c-2.432-2.866-2.494-4.099-0.359-7.258c2.045-3.026,1.517-3.123-0.673-6.051
		c-3.18-4.25-6.673-5.713-11.641-3.762c-0.845,0.332-1.987,0.25-2.902,0.011c-7.778-2.032-14.161,2.014-20.73,4.87
		c-5.611,2.439-10.88,5.719-17.39,4.991c-1.941-0.217-3.863,0.031-5.739,0.783c-3.808,1.525-7.933,1.62-11.912,2.019
		c-8.503,0.852-14.743,5.352-20.298,11.296c-0.948,1.015-0.899,2.011-0.212,3.085c0.611,0.956,1.227,1.91,1.867,2.846
		c1.172,1.714,1.337,3.327-0.544,4.641c-2.538,1.773-3.278,4.754-4.815,7.181c-1.728,2.727-3.94,4.088-7.148,4.29
		c-5.159,0.324-10.349,0.947-15.095,3.041c-4.08,1.8-7.158,5.192-9.285,8.981c-2.656,4.735-5.948,8.858-9.638,12.746
		c-3.964,4.176-3.936,5.766,0.246,9.544c0.749,0.677,1.369,1.327,1.623,2.335c0.49,1.94,1.62,3.48,2.978,4.948
		c2.091,2.259,1.845,4.211-0.646,5.957c-0.923,0.647-2.019,1.044-3.034,1.561c-2.005,1.02-3.491,0.616-4.149-1.642
		c-0.625-2.145-1.772-2.675-4.02-2.177c-2.281,0.505-6.585-2.54-7.293-4.673c-0.098-0.296-0.204-0.859-0.102-0.913
		c3.587-1.898,0.723-6.295,3.591-8.799c2.125-1.855,1.165-4.05-1.546-5.255c-0.737-0.328-1.557-0.467-2.308-0.768
		c-5.295-2.128-8.407-1.063-11.096,4.022c-0.981,1.855-1.776,3.839-2.401,5.844c-1.037,3.323-2.481,6.341-5.146,8.683
		c-0.983,0.864-1.58,1.952-2.091,3.209c-1.588,3.901-4.123,4.914-8.405,4.404c-5.99-0.714-11.952-0.596-17.785,1.455
		c-2.249,0.791-3.506,1.974-2.711,4.253c0.839,2.402,0.662,4.807,0.703,7.23c0.022,1.311,0.088,2.573,0.738,3.78
		c0.734,1.362,1.757,1.623,2.667,0.483c4.553-5.701,11.766-7.975,16.739-13.154c1.953-2.034,6.49-0.628,6.842,2.426
		c0.357,3.1,1.852,4.172,4.341,4.85c0.812,0.221,1.604,0.512,1.699,1.474c0.109,1.11-0.518,2.035-1.496,2.249
		c-3.588,0.783-5.346,3.028-6.497,6.444c-0.985,2.922-7.806,5.686-10.704,4.539c-2.645-1.048-5.061-0.898-7.515,0.198
		c-1.853,0.828-3.8,0.68-5.733,0.877c-3.116,0.318-3.92,1.768-2.632,4.795c0.637,1.495,0.501,2.417-0.934,3.21
		c-1.275,0.705-2.408,1.702-3.729,2.284c-2.646,1.164-4.678,2.788-5.712,5.61c-0.719,1.961-3.405,2.215-4.169,3.926
		c-1.178,2.637-4.175,4.006-4.92,6.366c-0.785,2.486-1.924,4.719-2.876,7.084c-1.219,3.027-2.27,6.078-4.593,8.502
		c-0.411,0.429-0.742,1.177-0.707,1.753c0.161,2.657-0.763,4.435-3.034,6.1c-2.458,1.803-2.528,5.364-0.925,8.005
		c0.619,1.02,1.291,1.956,2.699,1.44c1.916-0.702,2.691,0.34,3.129,1.967c0.795,2.956,3.188,5.346,3.003,8.665
		c-0.058,1.035,0.721,1.766,1.373,2.501c1.309,1.474,2.091,2.5-0.245,4.22c-1.828,1.346-2.56,4.035-1.205,6.494
		c1.436,2.605,1.039,5.401,0.857,8.124c-0.144,2.158-1.211,2.66-3.349,1.844c-1.655-0.631-3.474-1.16-4.797-2.249
		c-1.679-1.381-3.032-1.85-5.251-1.16c-2.61,0.811-3.746-0.933-2.783-3.732c1.56-4.535,1.416-4.93-3.1-6.823
		c-1.638-0.687-2.445-1.765-1.706-3.395c0.788-1.737,0.356-3.223-0.554-4.601c-2.549-3.859-3.088-8.095-2.798-12.59
		c0.167-2.592,0.196-5.225-0.062-7.804c-0.358-3.57-1.948-5.088-5.493-4.601c-4.417,0.607-8.997,1.115-12.572,4.38
		c-0.701,0.64-1.65,1.03-2.524,1.458c-8.683,4.249-17.716,7.917-25.945,12.911c-5.754,3.492-12.062,6.847-16.672,11.501
		c-4.486,4.528-9.649,9.066-12.264,15.328c-0.643,1.541-1.878,2.487-3.119,3.583c-3.394,2.998-6.799,6.092-9.576,9.637
		c-1.592,2.033-3.46,2.754-5.582,3.463c-0.762,0.254-2.087,0.113-2.289,0.551c-1.958,4.25-7.14,5.519-8.862,10.12
		c-1.854,4.952-5.315,9.142-7.45,14.029c-1.24,2.839-2.196,5.758-3.303,8.632c-0.534,1.385-0.214,2.513,0.416,3.707
		c0.643,1.219,1.425,2.375,2.968,1.953c1.671-0.457,3.215-1.7,2.76-3.472c-1.185-4.615,0.819-8.508,2.205-12.589
		c0.39-1.148,1.051-2.04,2.021-2.657c1.103-0.702,2.182-0.731,2.747,0.732c0.764,1.979,1.288,3.909,0.756,6.148
		c-1.678,7.066-2.462,14.241-1.966,21.519c0.084,1.228-0.419,2.462-1.259,3.052c-2.179,1.533-2.271,3.601-2.415,5.944
		c-0.211,3.445-1.595,5.013-4.726,4.891c-4.343-0.169-6.468,3.077-7.426,5.848c-1.367,3.957-4.211,5.387-7.276,7.049
		c-0.996,0.54-2.11,0.907-3.009,1.571c-1.579,1.166-2.532,2.617-1.01,4.529c2.222,2.79,0.724,5.547-0.806,7.603
		c-2.865,3.851-5.577,7.856-9.498,10.92c-3.125,2.442-5.287,5.84-6.5,9.79c-0.892,2.904-2.941,5.136-5.701,6.351
		c-1.847,0.813-2.012,1.979-1.513,3.478c0.418,1.256,0.613,2.496,0.704,3.806c0.171,2.455-0.172,4.264-2.992,5.232
		c-2.301,0.79-3.467,3.858-6.577,3.526c-0.879-0.094-1.15,1.033-1.154,1.865c-0.01,2.132-0.821,4.117-1.143,6.197
		c-0.611,3.936-1.581,7.699-3.947,11.285c-2.334,3.537-3.31,8.022-4.577,12.184c-0.525,1.724,0.723,3.447,1.295,5.117
		c0.468,1.366,0.603,2.586-0.514,3.581c-3.489,3.109-4.513,7.773-7.246,11.38c-1.14,1.504-2.014,2.588-4.087,2.884
		c-4.539,0.647-6.467,2.403-6.927,6.838c-0.312,3.011-1.603,6.522,1.847,8.975c1.09,0.775,0.173,1.744-0.403,2.502
		c-1.461,1.922-1.757,4.105-1.706,6.453c0.12,5.506-1.003,11.334,1.192,16.391c2.19,5.044,0.978,9.748,0.791,14.635
		c-0.037,0.973-0.011,1.955,0.069,2.925c0.076,0.932,0.562,1.519,1.592,1.283c3.036-0.696,3.495,1.366,3.141,3.401
		c-0.811,4.659-2.393,9.045-6.008,12.404c-1.042,0.968-2.079,1.171-3.536,0.891c-5.396-1.035-6.728-0.105-5.909,5.292
		c1.674,11.023,0.375,22.071,0.91,33.089c0.2,4.109-0.365,8.113-1.284,12.05c-0.944,4.046-1.021,7.997-0.03,12.013
		c0.23,0.934,0.472,1.992,0.259,2.886c-1.229,5.153,0.694,10.289,0.014,15.402c-0.668,5.023,1.397,9.576,2.237,14.326
		c0.324,1.831,1.853,3.343,3.542,4.486c1.609,1.088,2.075,2.452,1.592,4.603c-0.926,4.122-0.943,8.392,0.071,12.542
		c0.516,2.111,0.308,4.202,0.402,6.302c0.178,3.951,1.269,7.19,5.317,9.032c3.555,1.618,5.837,4.586,6.687,8.503
		c0.134,0.619,0.54,1.539,0.278,1.827c-2.389,2.624-0.714,5.126,0.01,7.71c1.052,3.754,0.224,5.181-3.566,6.56
		c-2.84,1.034-3.574,2.046-2.372,4.641c1.688,3.644,1.588,7.891,4.361,11.216c1.591,1.908,0.836,2.977-1.799,3.618
		c-0.763,0.185-1.574,0.172-2.188,0.232c-1.076,1.619,0.305,2.278,0.802,3.165c0.953,1.702,1.617,3.249-0.616,4.516
		c-1.012,0.574-1.297,1.667-0.599,2.496c2.377,2.825,0.31,5.17-0.712,7.588c-0.363,0.859-1.268,1.473-1.809,2.277
		c-2.126,3.156-1.991,4.942,0.404,7.882c4.295,5.271,6.571,11.325,7.624,18.048c0.759,4.841,1.218,9.659,3.453,14.414
		c1.94,4.127,4.364,7.414,7.446,10.474c1.244,1.235,1.997,2.454,1.182,4.311c-0.926,2.109-0.502,4.062,0.992,5.895
		c1.53,1.877,1.546,4.193,1.492,6.508c-0.056,2.429-0.032,4.817,0.829,7.207c0.851,2.363,2.218,2.866,4.491,2.429
		c6.294-1.209,8.296,1.325,7.679,7.976c-0.38,4.098,0.213,8.423,1.129,12.475c1.991,8.809,4.11,17.586,5.837,26.455
		c0.249,1.282,0.523,2.53,0.531,3.835c0.004,0.65-0.193,1.495,0.133,1.918c2.779,3.603,3.276,8.41,6.139,11.883
		c2.986,3.621,6.807,6.485,9.499,10.434c1.266,1.858,2.562,1.533,3.732-0.494c0.66-1.144,1.032-2.37,1.042-3.714
		c0.008-1.065,0.406-1.907,1.626-2.042c1.034-0.114,2.022,0.11,2.598,0.989c0.616,0.94,1.223,1.968,1.481,3.042
		c0.459,1.91,1.938,2.95,3.141,4.244c1.009,1.085,1.989,1.391,3.387,0.417c2.205-1.537,4.599-1.502,6.811,0.051
		c1.315,0.923,2.734,0.879,4.195,0.92c4.494,0.126,7.005,2.134,7.877,6.651c0.276,1.431,0.751,2.839,0.886,4.259
		c0.217,2.286,1.214,3.508,3.472,4.014c3.203,0.716,4.419,3.744,6.056,6.028c2.216,3.09,4.606,5.092,8.6,5.547
		c7.099,0.808,11.951,5.292,15.86,10.94c0.277,0.399,0.382,1.004,0.745,1.243c5.94,3.914,4.012,9.513,3.085,14.793
		c-0.687,3.915-1.311,7.708,1.492,11.1c0.41,0.496,0.763,1.237,1.29,1.407c4.791,1.549,6.28,5.838,8.184,9.754
		c1.341,2.76,2.644,5.557,3.879,8.344c1.399,3.158,3.504,6.02,3.582,9.91c0.074,3.638,3.615,5.658,6.27,7.676
		c2.431,1.848,4.2,3.919,5.201,6.769c0.829,2.36,1.99,4.431,4.798,5.021c1.313,0.276,2.097,1.495,3.002,2.416
		c1.714,1.745,3.302,3.427,6.146,3.413c1.936-0.009,3.205,1.507,3.4,3.532c0.181,1.875-0.92,3.197-2.507,3.792
		c-1.751,0.656-3.565,0.865-5.573,0.89c-5.612,0.071-9.872-2.545-14.043-5.59c-1.538-1.123-2.715-2.729-4.121-4.047
		c-0.612-0.574-1.479-0.856-2.208-0.263c-0.905,0.736-0.174,1.44,0.27,2.079c1.897,2.735,2.372,6.432,5.665,8.249
		c0.473,0.261,0.809,1.088,0.888,1.694c0.582,4.501,4.382,6.468,7.472,8.458c3.187,2.053,6.567,4.203,10.452,5.03
		c1.914,0.408,3.2,1.491,3.672,3.426c0.562,2.306,1.889,3.71,4.355,3.892c1.255,0.093,2.197,0.802,2.568,1.958
		c1.114,3.468,4.239,3.567,6.987,4.434c2.033,0.641,3.536-0.221,4.866-1.417c1.434-1.29,0.666-2.642-0.335-3.853
		c-0.761-0.92-0.37-1.786,0.037-2.714c1.218-2.774,3.792-3.947,6.255-5.104c1.475-0.693,2.807,0.305,3.854,1.443
		c2.527,2.749,5.608,4.99,7.658,8.167c1.041,1.613,2.244,2.473,3.986,1.231c3.122-2.227,6.651-2.457,10.251-2.217
		c7.727,0.514,14.834,2.693,21.167,7.414c2.816,2.099,6.166,3.49,9.295,5.161c2.937,1.568,4.978,3.771,6.61,6.799
		c4.989,9.257,11.568,17.006,21.478,21.544c2.822,1.292,5.579,2.497,8.605,3.031c5.117,0.903,9.647,3.779,14.894,4.318
		c1.168,0.12,2.238,1.24,3.344,1.915c1.399,0.855,2.837,1.436,4.534,1.596c3.839,0.361,4.939,1.606,5.19,5.526
		c0.094,1.459-0.048,2.933,0.041,4.393c0.199,3.266,0.801,3.851,4.401,4c1.06,0.044,1.901,0.405,2.659,0.99
		c0.321,0.248,0.518,0.828,0.532,1.265c0.026,0.828-0.647,1.197-1.301,0.973c-1.756-0.601-2.921-0.152-3.258,1.699
		c-0.299,1.646-0.295,3.358,1.445,4.292c1.278,0.686,2.303,2.301,3.776,2.065c4.835-0.772,7.699,2.905,11.315,4.784
		c2.444,1.27,4.652,2.91,7.496,3.309c1.457,0.204,2.789,0.949,3.828,2.02c1.211,1.247,2.586,1.912,4.345,1.764
		c1.355-0.114,2.544,0.286,3.601,1.183c2.521,2.139,5.803,1.974,8.757,2.537c2.995,0.571,7.322-5.376,5.648-7.941
		c-2.037-3.122-0.763-5.492,0.31-8.148c0.365-0.903,0.699-1.878,1.298-2.617c4.018-4.951,3.476-11.34,5.433-16.933
		c-1.912-5.344,1.141-10.712-0.384-16.288c-1.161-4.243-0.389-9.051-0.248-13.6c0.069-2.202,1.322-4.167,3.14-5.295
		c3.72-2.307,5.838-5.992,8.509-9.2c0.636-0.764,1.5-1.271,2.079-1.974c3.278-3.977,7.295-2.423,11.195-1.649
		c1.481,0.294,1.817,1.762,2.358,2.903c1.818,3.836,2.996,7.986,3.645,12.071c1.395,8.774,2.404,17.641,2.169,26.576
		c-0.03,1.134,0.204,2.443-0.273,3.369c-2.998,5.821-1.525,12.205-2.001,18.251c-0.304,3.856-0.674,8.49,1.907,12.287
		c0.955,1.405-0.271,3.511,1.137,4.927c0.455-0.298,0.921-0.471,0.914-0.62c-0.206-4.141,2.204-7.842,2.16-11.877
		c-0.062-5.657,0.205-11.289-0.627-16.999c-0.657-4.508-0.299-9.34-0.565-13.938c-0.295-5.088,0.457-9.827,1.139-14.743
		c0.576-4.152,0.133-8.447,0.119-12.679c-0.027-8.131,0.978-16.099,3.536-23.856c0.394-1.195,0.396-2.569,0.351-3.852
		c-0.23-6.472,0.713-12.993-0.883-19.418c-0.304-1.223-0.304-2.671,0.038-3.88c1.793-6.342,0.798-12.531-0.765-18.708
		c-0.49-1.934-0.597-3.943-0.186-5.809c1.247-5.65,0.346-11.214,0.176-16.864c-0.217-7.227-2.495-14.373-0.706-21.772
		c0.629-2.601-0.671-5.688-0.611-8.628c0.373-18.36-1.438-36.676-1.065-55.052c0.156-7.669,1.634-15.11,2.463-22.654
		c0.247-2.248,0.498-4.487,0.586-6.748c0.125-3.229-0.462-6.519,0.827-9.65c0.06-0.147,0.109-0.328,0.081-0.478
		c-1.229-6.522-0.022-13.311-2.013-19.723c-1.444-4.649-3.42-9.146-2.836-14.195c0.071-0.617-0.101-1.299-0.309-1.9
		c-0.214-0.619-0.679-1.112-1.39-1.209c-0.966-0.133-1.622,0.44-1.846,1.238c-0.788,2.804-1.51,5.628-2.165,8.466
		c-0.472,2.047-0.986,4.113-1.151,6.196c-0.354,4.462-3.418,7.161-6.293,9.921c-2.231,2.141-4.656,1.23-5.333-1.792
		c-1.229-5.487-3.607-10.719-3.082-16.596c0.201-2.253-3.042-4.38-5.807-3.657c-7.295,1.907-11.667-2.002-15.59-7.158
		c-0.686-0.901-1.423-1.764-2.152-2.632c-2.526-3.01-2.278-6.399,0.912-8.815c1.441-1.091,2.955-2.082,3.872-3.633
		c1.174-1.985,2.377-4.059-0.422-5.891c-0.992-0.65-1.673-1.841-0.544-2.857c1.108-0.998,2.113-0.16,2.863,0.78
		c0.717,0.899,1.515,2.181,2.661,1.03c1.218-1.223,0.778-2.801-0.574-3.781c-1.172-0.851-2.556-1.411-3.85-2.094
		c-1.295-0.684-2.804-1.249-2.556-3.121c0.245-1.853,1.869-2.056,3.267-2.423c2.499-0.655,5.037-1.17,7.508-1.914
		c0.997-0.3,2.49-0.621,2.214-2.115c-0.242-1.312-1.571-1.345-2.717-1.578c-3.349-0.681-6.695-1.11-10.131-0.976
		c-4.808,0.187-9.604-0.809-14.36-0.712c-4.815,0.098-9.697,0.448-14.482,1.094c-2.42,0.327-4.814,0.516-7.235,0.634
		c-2.102,0.103-3.799,0.974-2.953,3.284c1.183,3.23-0.43,4.891-2.748,6.425c-0.676,0.448-1.392,0.841-2.04,1.325
		c-2.716,2.027-2.838,2.768-0.972,5.515c2.243,3.302,1.792,5.187-1.669,6.968c-2.658,1.368-3.533,1.003-4.632-1.931
		c-1.512-4.035-7.743-5.323-10.854-2.244c-1.173,1.161-0.792,3.705,0.943,5.163c0.711,0.597,1.747,0.792,2.587,1.256
		c0.919,0.507,1.482,1.282,1.171,2.399c-0.273,0.981-1.149,1.138-1.949,1.073c-2.953-0.237-4.539,0.866-4.862,4.005
		c-0.154,1.497-1.555,2.092-2.995,1.199c-1.972-1.222-3.93-1.264-6.016-0.378c-0.418,0.177-1.017,0.198-1.443,0.043
		c-3.738-1.362-6.904-1.498-8.678,3.046c-0.427,1.093-2.041,1.265-2.842,0.063c-0.987-1.48-2.635-2.48-3.109-4.316
		c-0.671-2.598-2.414-3.565-5.022-3.699c-2.125-0.11-4.346-1.816-5.968,1.142c-0.679,1.238-1.961,0.91-2.948,0.084
		c-0.872-0.73-1.574-2.025-2.531-2.229c-4.783-1.022-6.883-4.672-9.315-8.342c-1.606-2.425-2.795-4.668-2.606-7.595
		c0.104-1.617-0.1-3.199-0.545-4.809c-1.146-4.139-0.527-8.578,1.946-11.629c3.519-4.341,2.746-8.914,2.243-13.414
		c-0.707-6.327,1.625-11.688,4.047-17.127c0.762-1.712,2.359-1.797,3.721-0.955c2.897,1.792,5.752,3.681,8.445,5.762
		c1.675,1.293,1.837,3.397,1.632,5.387c-0.547,5.298,2.271,9.688,3.814,14.417c0.505,1.549,1.75,2.513,3.375,2.219
		c2.309-0.417,3.962,1.971,5.896,1.506c2.17-0.522,1.815-3.503,3.52-4.962c4.439-3.8,6.625-8.622,5.924-14.675
		c-0.483-4.166,0.523-8.441-0.891-12.583c-0.288-0.844-0.137-2.004,0.203-2.863c0.75-1.899,0.975-3.918,0.569-5.763
		c-1.33-6.055-0.427-12.266-1.627-18.349c-0.712-3.609-0.769-7.448,0.704-11.057c1.078-2.642,0.826-5.227,0.412-8.068
		c-0.77-5.274-0.932-10.688,0.167-15.99c0.407-1.963,0.503-3.813-0.048-5.754c-0.995-3.51-0.469-7.102-0.373-10.664
		c0.187-6.911,0.522-13.852-2.082-20.453c-0.677-1.715-1.082-3.382-0.992-5.199c0.288-5.819-0.754-11.708,0.929-17.455
		c0.088-0.302,0.145-0.704,0.02-0.965c-3.537-7.336,2.158-12.091,5.002-17.576c1.952-3.765,5.852-4.611,9.589-4.769
		c7.608-0.322,15.219-0.856,22.807-1.29c7.455-0.425,15.055,0.278,22.301-1.016c6.402-1.143,13.203-1.313,19.197-4.491
		c4.077-2.162,4.297-2.458,2.782-6.685c-0.485-1.354-0.409-2.467,0.071-3.741c0.488-1.296,0.378-2.517-0.904-3.458
		c-2.635-1.934-1.661-4.637-1.396-7.159c0.049-0.462,0.292-0.958,0.582-1.332c3.958-5.098,3.92-11.489,5.634-17.312
		c0.848-2.883,0.091-5.502-1.499-7.88c-2.04-3.051-3.096-6.276-3.187-10.013c-0.099-4.078-1.678-8.073-3.43-11.547
		c-2.742-5.436-2.127-10.669-1.086-16.068c0.319-1.656,0.273-3.066,0.005-4.706c-0.493-3.017-0.861-6.177,0.808-9.048
		c1.141-1.963,0.893-4.099,0.86-6.195c-0.048-3.006,0.797-5.643,2.299-8.285c2.955-5.198,4.839-10.95,8.053-16.039
		c0.716-1.134,0.334-2.547,0.412-3.838c0.275-4.517-0.702-9.104,0.823-13.559c0.385-1.125-0.306-2.203-0.551-3.305
		c-1.113-5.01-2.217-9.943-1.392-15.242c0.545-3.501,1.781-6.384,4.549-8.152c4.014-2.565,6.201-6.022,7.004-10.571
		c0.196-1.109,0.331-2.31,0.868-3.256c0.719-1.266,1.715-2.433,3.552-1.577c1.276,0.595,2.482,1.597,4.09,0.667
		c1.691-0.979,3.548-1.851,4.546-3.543c2.793-4.733,6.022-9.255,7.682-14.582c0.441-1.415,1.023-2.727,1.868-3.941
		c2.06-2.958,3.532-6.203,4.617-9.629c0.492-1.553,0.843-3.238,2.387-4.105c2.789-1.565,3.152-4.439,3.765-7.062
		c0.436-1.862,0.201-3.651-1.545-5.275c-2.825-2.627-2.768-3.108-0.532-6.03c0.944-1.233,1.412-2.589,1.764-3.959
		c1.067-4.156,3.421-7.684,5.347-11.414c0.579-1.122,1.431-2.313,2.477-2.944c3.053-1.843,5.022-4.287,6.344-7.665
		c1.188-3.035,5.783-3.248,7.452-0.338c1.043,1.818,2.181,2.214,3.863,2.05c2.434-0.238,4.252,0.673,6.172,2.19
		c3.544,2.801,6.669,2.362,9.911-0.805c2.415-2.359,4.329-5.167,7.107-7.23c2.355-1.749,2.481-4.971,3.07-7.479
		c1.197-5.095,0.654-10.052-2.608-14.813c-3.965-5.786-8.618-9.168-15.87-9.182c-2.362-0.005-4.627-0.425-7.094,0.076
		c-4.204,0.853-7.16-0.971-7.867-5.272c-0.605-3.682-2.113-6.753-3.58-9.974c-0.135-0.296-0.362-0.562-0.44-0.869
		c-0.955-3.762-2.185-6.787-7.195-6.632c-1.879,0.058-3.973-2.019-5.473-3.795c-0.627-0.743-1.122-1.626-1.843-2.256
		c-2.103-1.84-4.031-1.751-5.598,0.654c-1.351,2.074-3.333,2.435-5.358,2.826c-1.309,0.253-2.728,0.065-2.972-1.686
		c-0.277-1.986-1.64-2.083-3.201-2.152c-2.737-0.121-5.443,0.153-8.211-0.639c-4.805-1.376-8.266-4.404-11.348-8.04
		c-1.175-1.387-1.787-3.07-1.709-4.963c0.066-1.625,0.099-3.24-1.097-4.613c-0.966-1.108-0.547-2.143,0.544-2.884
		c1.936-1.315,1.736-2.813,0.679-4.606c-2.52-4.272-0.199-8.124,1.303-11.968c0.477-1.223,1.772-1.465,2.817-0.422
		c2.582,2.579,6.65,2.423,9.178,5.153c2.431,2.625,4.892,5.264,7.623,7.559c3.592,3.019,7.467,5.73,10.338,9.493
		c2.321,3.042,5.927,2.975,9.007,0.349c2.346-2.001,4.477-4.268,6.598-6.515c2.135-2.261,4.756-2.81,7.734-3.453
		c5.342-1.154,8.112,1.165,10.378,5.379c1.918,3.567,4.29,6.906,6.005,10.56c0.908,1.934,1.89,2.907,3.95,2.78
		c2.009-0.123,3.795,0.244,5.453,1.58c1.419,1.143,3.023,1.289,5.006,0.774c2.864-0.744,4.319,1.28,3.529,4.305
		c-0.368,1.409-0.997,2.802-1.072,4.225c-0.122,2.317-0.985,3.441-3.392,3.902c-2.557,0.49-3.969,2.368-4.61,5.045
		c-0.613,2.561-0.959,5.086-0.863,7.697c0.134,3.628,1.429,5.04,5.135,4.626c3.509-0.391,7.049-1.236,10.123-3.043
		c2.279-1.34,4.282-2.203,6.739-0.594c0.632,0.414,1.679,0.807,2.274,0.565c5.195-2.109,10.273,0.487,15.405,0.261
		c0.625-0.028,1.318,0.115,1.886,0.379c9.268,4.317,18.48,3.12,27.839,0.136c7.242-2.309,14.676-3.986,21.936-6.292
		c6.736-2.139,13.595-3.899,19.937-7.1c2.303-1.162,4.275-2.887,6.49-4.238c2.284-1.393,1.754-4.192-0.814-5.289
		c-3.245-1.386-6.643-1.41-10.044-0.717c-0.945,0.193-1.801,0.62-2.832,0.339c-2.147-0.583-2.658-1.79-1.204-3.414
		c3.107-3.47,6.557-6.345,11.646-6.086c1.327,0.068,2.67-0.073,3.23-1.578c0.253-0.679-0.13-1.276-0.666-1.689
		c-1.277-0.984-2.439-0.27-3.63,0.272c-1.623,0.739-3.325,1.321-4.901,2.146c-3.96,2.075-8.24,2.717-12.601,3.29
		c-2.152,0.283-3.466-0.356-4.409-2.071c-0.91-1.654-2.321-3.3-0.372-5.239c0.553-0.55,0.923-1.359,1.183-2.115
		c1.411-4.103,3.711-6.73,8.578-5.754c0.872,0.175,1.9-0.283,2.826-0.551c5.261-1.521,10.158-0.81,14.678,2.318
		c0.399,0.276,0.834,0.863,1.173,0.809c4.196-0.666,8.568,1.31,12.647-0.813c1.135-0.59,2.031-1.842,3.441-1.646
		c3.459,0.48,5.565-1.495,8.075-3.494c5.618-4.475,11.681-8.304,19.479-7.342c1.618,0.2,3.068,0.43,4.607,1.182
		c3.184,1.554,6.511,2.919,10.22,2.803c0.941-0.029,1.931,0.251,2.838,0.566c5.686,1.97,11.692,2.461,17.525,3.749
		c2.714,0.599,5.686,0.342,8.501,0.378c5.732,0.073,11.29,1.083,16.813,2.221c6.359,1.311,12.554,1.321,18.703-0.725
		c4.806-1.6,9.405-1.776,14.121,0.582c2.715,1.357,5.969,1.502,8.619,3.209c0.817,0.527,1.939,0.773,2.494,1.482
		c3.055,3.901,7.723,5.583,11.42,8.563c2.101,1.693,4.43,3.335,5.219,6.246c0.459,1.697,1.822,2.807,3.415,3.224
		c3.191,0.836,5.719,2.992,8.79,4.069c3.444,1.207,4.745,4.717,7.024,7.171c3.174,3.418,5.671,7.46,9.468,10.304
		c0.818,0.613,1.565,1.374,1.686,2.314c0.393,3.047,2.339,5.244,3.89,7.669c2.813,4.399,3.444,9.402,3.617,14.419
		c0.214,6.177,0.04,12.368,0.06,18.553c0.005,1.454-0.309,2.997,0.426,4.327c1.747,3.162,2.649,6.603,3.616,10.039
		c0.348,1.239,0.768,2.707,1.94,3.299c4.442,2.242,5.658,6.962,8.389,10.51c0.738,0.958,1.003,1.81,0.688,3.107
		c-1.23,5.075,1.239,9.367,3.336,13.659c1.026,2.1,0.885,3.397-1.234,3.449c-7.479,0.183-10.148,6.106-13.239,11.167
		c-2.002,3.277-2.162,7.725,0.3,10.65c3.589,4.264,2.878,8.875,2.354,13.388c-1.154,9.947-3.694,19.647-6.747,29.174
		c-1.48,4.618-3.584,9.066-6.963,12.667c-4.754,5.066-7.875,11.106-10.396,17.435c-1.664,4.176-4.359,6.248-8.78,6.276
		c-1.129,0.007-2.456-0.174-3.352,0.333c-5.291,2.992-11.414,3.702-16.824,6.313c-1.488,0.718-2.975,1.21-4.667,1.175
		c-2.59-0.054-5.148-0.055-7.71,0.768c-2.57,0.825-5.226-0.394-7.614-1.003c-4.96-1.264-9.69-0.677-14.405,0.44
		c-2.426,0.574-4.794,0.722-7.225,0.751c-2.591,0.031-5.124,0.22-7.716,0.712c-4.848,0.921-9.646-0.523-14.351-1.579
		c-3.914-0.879-7.669-2.403-11.574-3.438c-4.137-1.096-8.35-2.367-12.473-3.739c-4.068-1.354-4.28-1.212-6.914,2.051
		c-1.135,1.406-2.635,2.366-4.019,3.49c-5.232,4.248-7.614,9.722-6.976,16.592c0.448,4.827-0.236,9.63-1.758,14.265
		c-0.355,1.082-0.922,2.123-2.002,2.679c-3.796,1.955-4.194,5.474-4.272,9.151c-0.075,3.51,0.079,6.761-2.263,10.12
		c-1.76,2.524-1.477,6.496-2.227,9.808c-0.815,3.602-1.031,7.353-1.348,11.052c-0.452,5.275,1.167,9.971,4.576,13.967
		c2.259,2.648,2.872,5.888,3.087,9.046c0.25,3.675,0.392,7.386-0.549,11.132c-1.358,5.411,2.547,9.888,8.141,9.92
		c3.906,0.022,7.816-0.105,11.717,0.037c3.449,0.126,6.819-0.205,10.102-1.192c3.679-1.106,7.344-1.164,11.028-0.179
		c1.29,0.345,2.552,0.448,3.847,0.148c0.628-0.146,1.395-0.61,1.86-0.4c4.236,1.91,9.023,0.999,13.276,2.648
		c2.39,0.927,4.663,1.196,7.071,0.078c2.571-1.194,5.356-1.36,8.125-1.115c5.69,0.503,10.522-1.605,14.816-4.994
		c1.658-1.309,3.234-2.014,5.299-1.883c1.29,0.082,2.601,0.101,3.853-0.401c4.907-1.966,10.221-1.393,15.302-2.388
		c3.5-0.686,7.052,0.699,10.464,1.577c2.676,0.688,4.865,2.334,6.193,5.098c1.902,3.961,5.01,6.713,9.415,7.78
		c3.394,0.822,5.752,2.893,7.2,6.043c0.204,0.443,0.358,0.93,0.651,1.309c3.742,4.841,4.678,10.126,2.999,16.043
		c-0.496,1.749,0.664,3.712-0.275,5.66c-0.804,1.669-1.291,3.359-3.619,3.265c-1.942-0.078-2.725,1.086-3.395,2.821
		c-1.109,2.873-2.601,5.599-3.97,8.369c-0.864,1.749-1.786,3.429-1.791,5.497c-0.004,1.677-0.871,3.139-1.998,4.343
		c-2.273,2.427-2.846,5.363-2.826,8.536c0.027,4.232-0.113,8.468,0.047,12.693c0.114,3.008-0.532,5.259-3.411,6.883
		c-3.344,1.885-3.925,5.916-3.724,8.882c0.15,2.202,1.848,5.046,3.536,7.258c2.525,3.308,3.513,6.88,1.623,10.885
		c-0.336,0.713-0.848,1.684-0.614,2.272c1.595,4.012-0.294,6.852-2.823,9.64c-1.707,1.883-1.321,4.631-2.486,6.802
		c-1.836,3.421-3.573,6.901-5.223,10.416c-1.794,3.82-3.3,7.705-3.616,12.032c-0.368,5.041-3.215,9.447-4.061,14.445
		c-0.482,2.852,0.454,5.608-0.539,8.548c-1.31,3.878-2.911,7.136-6.608,9.153c-2.846,1.553-5.57,3.333-8.43,4.859
		c-3.383,1.805-5.865,1.258-8.704-1.636c-1.568-1.598-2.685-3.637-5.03-4.457c-1.416-0.495-2.782-1.024-4.252-0.688
		c-8.628,1.971-17.084,0.841-25.433-1.491c-3.948-1.103-7.885-1.75-11.992-1.577c-3.25,0.137-6.519,0.193-9.763-0.004
		c-9.601-0.582-19.111,0.97-28.684,1.124c-3.184,0.051-6.392,0.784-9.636,0.978c-3.526,0.211-4.514,1.807-4.75,5.471
		c-0.152,2.357,0.473,4.575,1.109,6.683c1.952,6.472,1.537,13.552,5.067,19.608c0.316,0.542,0.72,1.355,0.531,1.817
		c-1.484,3.625-0.844,7.974-2.903,11.184c-3.788,5.906-2.943,12.109-2.296,18.37c0.148,1.434,0.892,3.015,0.371,4.293
		c-1.206,2.957-0.519,5.798,0.221,8.546c0.908,3.372,0.937,6.744,0.846,10.144c-0.054,2.045,0.516,3.838,1.504,5.562
		c0.567,0.99,1.131,2.322,2.507,1.602c1.185-0.62,0.326-1.729-0.085-2.542c-1.005-1.988-1.403-3.979-0.342-6.066
		c0.452-0.889,0.951-1.752,2.164-1.573c1.099,0.162,1.926,0.925,1.909,1.914c-0.047,2.861,1.199,5.327,1.97,7.957
		c0.754,2.571-0.126,3.83-2.854,4.527c-1.449,0.37-2.716,1.049-4.052,1.627c-2.717,1.175-3.677,3.138-3.745,6.15
		c-0.182,8.157,1.507,16.095,2.468,24.112c0.211,1.762,0.534,3.512,0.533,5.295c-0.003,3.552,0.311,7.097,0.387,10.633
		c0.087,4.037-1.117,7.949-2.75,11.705c-1.375,3.163-2.24,6.463-1.051,9.939c0.569,1.662-0.395,3.173-0.558,4.763
		c-0.544,5.294-0.595,10.647-1.724,15.881c-0.203,0.94-0.15,1.943-0.152,2.917c-0.012,6.616-0.451,13.273,0.141,19.836
		c0.439,4.867-0.053,9.614-0.155,14.413c-0.076,3.59-0.077,7.154,1.464,10.522c0.264,0.578,0.401,1.245,0.453,1.883
		c1.141,13.772,1.435,27.588,0.87,41.371c-0.293,7.144-0.482,14.302-0.745,21.448c-0.262,7.143,0.695,14.183,4.37,20.576
		c0.607,1.055,0.674,2.298-0.259,3.172c-3.812,3.572-3.941,8.339-4.143,12.984c-0.219,5.036-0.142,10.091-0.023,15.134
		c0.111,4.707,1.087,9.318,2.331,13.834c0.809,2.935,1.999,3.439,5.096,2.984c3.151-0.462,3.529-0.117,3.004,2.758
		c-0.029,0.157-0.139,0.299-0.171,0.456c-1.679,8.455,0.065,9.995,7.515,14.13c1.966,1.091,3.966,1.823,5.373,3.686
		c0.795,1.052,1.885,1.835,3.324,1.757c1.716-0.094,3.149,0.687,4.611,1.396c1.409,0.683,2.876,0.897,4.143-0.146
		c4.003-3.293,8.598-1.903,13.087-1.949c6.518-0.067,13.154,0.528,19.188-3.156c3.153-1.925,6.454-3.738,10.263-4.331
		c2.89-0.45,5.288-1.61,7.519-3.911c3.646-3.759,8.899-5.144,13.572-7.344c1.024-0.482,2.444-0.582,3.083-1.353
		c4.173-5.039,10.451-4.947,15.938-6.316c5.832-1.455,11.027-3.355,15.284-7.789c2.333-2.43,5.077-4.28,6.125-7.849
		c0.502-1.712,2.346-2.9,4.544-3.234c2.219-0.337,4.375-1.131,6.352-2.347c1.644-1.011,0.402-3.76,2.702-4.255
		c1.738-0.374,3.608,0.233,5.277-0.658c1.141-0.609,2.74-0.996,3.287-1.962c1.502-2.65,2.378-3.076,4.167-0.143
		c0.862,1.413,2.564,0.326,2.979-0.984c0.847-2.672,2.788-2.664,4.634-1.887c2.518,1.06,4.25,0.031,6.287-1.185
		c3.188-1.903,6.436-3.585,7.922-7.326c0.275-0.693,1.034-1.278,1.698-1.72c7.803-5.191,14.422-12.132,23.272-15.781
		c0.596-0.246,1.357-0.5,1.66-0.987c2.915-4.687,8.005-5.125,12.583-6.581c1.23-0.391,2.431-0.877,3.626-1.367
		c1.052-0.431,2.173-1.47,3.099-1.307c5.307,0.934,8.742-2.603,12.574-5.07c1.238-0.797,2.313-1.245,3.57-0.684
		c3.069,1.37,5.482,0.129,7.424-2.015c3.183-3.515,7.134-6.134,10.505-9.418c0.687-0.67,1.484-1.307,2.347-1.703
		c7.101-3.255,13.124-8.222,19.717-12.279c1.559-0.959,3.111-1.993,4.037-3.465c3.648-5.801,8.908-10.337,12.691-15.895
		c2.837-4.168,6.061-8.919,4.643-14.783c-0.168-0.696,0.146-1.654,0.533-2.317c2.459-4.206,2.291-8.978,3.007-13.553
		c0.289-1.844,0.832-3.654,2.297-4.696c2.13-1.515,3.246-3.447,4.002-5.873c0.915-2.939,2.938-4.606,6.26-4.206
		c0.963,0.116,2.044-0.231,2.912,0.079c5.122,1.833,8.672-1.243,11.394-4.455c4.197-4.954,9.396-8.99,13.002-14.454
		c0.621-0.941,1.706-1.661,2.074-2.667c1.674-4.582,5.275-7.785,8.223-11.378c3.938-4.801,5.985-10.262,7.511-16.1
		c1.428-5.462,4.807-9.903,8.14-14.281c2.424-3.184,4.891-6.493,9.168-7.554c0.561-0.139,1.02-0.785,1.472-1.249
		c7.195-7.375,13.036-15.573,16.224-25.538c3.808-11.904,7.751-23.753,13.517-34.928c4.561-8.84,5.75-18.734,7.951-28.281
		c1.167-5.062,2.418-10.097,4.206-14.948c2.47-6.698,2.998-13.566,2.753-20.588c-0.082-2.341-0.774-4.546-1.907-6.48
		c-1.341-2.29-0.373-3.665,1.269-4.978c1.011-0.808,2.044-1.656,3.201-2.202c7.67-3.617,11.091-10.374,13.306-17.973
		c1.357-4.655,2.874-9.303,2.833-14.243c-0.038-4.503-0.005-9.01-0.188-13.508c-0.142-3.499,0.57-6.728,1.949-9.93
		c0.888-2.062,1.536-4.288,1.895-6.504c0.741-4.577-1.994-8.15-6.597-9.1c-3.082-0.636-5.932-1.68-7.524-4.746
		c-0.289-0.558-0.766-1.198-1.31-1.416c-4.967-1.99-7.536-6.905-11.963-9.625c-4.984-3.062-4.806-12.506-0.038-15.914
		c1.843-1.317,3.723-2.565,5.408-4.134c1.986-1.849,4.165-1.946,5.998,0.075c2.367,2.608,5.12,1.47,7.721,1.416
		c1.516-0.031,2.764-3.447,2.116-5.246c-0.214-0.594-0.79-1.053-1.029-1.643c-0.679-1.673-0.823-2.941,1.489-3.72
		c3.016-1.017,3.283-2.554,1.216-4.833c-0.531-0.586-1.314-0.939-1.954-1.434c-1.185-0.916-1.767-2.474-0.883-3.417
		c1.766-1.886,1.16-5.259,4.124-6.283c0.276-0.095,0.636-0.412,0.672-0.667c0.644-4.545,2.521-9.408,0.426-13.604
		c-2.085-4.176-1.908-8.131-1.254-12.233c0.418-2.62,0.627-5.046-0.027-7.661c-0.765-3.056,0.75-6.006,1.067-9.029
		c0.067-0.637,0.941-1.516,1.611-1.713c6.284-1.856,6.601-7.327,7.667-12.369c1.802-8.529,0.653-17.168,0.964-25.752
		c0.053-1.463-0.099-2.942,0.053-4.391c0.368-3.501,1.658-4.651,5.29-4.953c4.302-0.358,5.786-3.079,3.692-6.938
		c-1.09-2.008-2.467-3.533-4.926-4.305c-5.604-1.76-7.998-5.388-8.003-11.216c-0.003-4.041-0.443-8.122,1.792-11.879
		c0.567-0.954,0.848-2.107,1.733-2.863c2.981-2.545,3.204-5.677,2.29-9.244c-1.205-4.705-1.75-9.536-1.888-14.383
		c-0.184-6.473-3.904-9.254-9.88-6.891c-2.736,1.082-5.661,1.459-8.324,2.648c-2.266,1.011-4.055,0.577-5.673-1.24
		c-1.189-1.335-2.636-2.46-3.705-3.878c-1.291-1.712-1.927-3.772-4.765-1.478c-1.549,1.252-3.579-0.116-3.699-2.346
		c-0.17-3.163-2.168-6.585,1.346-9.425c1.161-0.938,0.65-2.987-0.368-4.055c-5.03-5.276-3.784-12.476-5.818-18.658
		c-0.58-1.761-0.438-3.835-1.057-5.698c-1.431-4.305-0.541-8.615,0.04-12.911c0.82-6.062-2.678-13.378-8.023-16.368
		c-1.448-0.81-2.713-1.765-3.845-2.947c-4.345-4.54-8.198-9.403-11.73-14.66c-2.598-3.866-3.916-6.656-1.286-11.043
		c1.875-3.127-1.478-5.726-2.889-8.298c-1.487-2.711-3.875-3.957-7.388-2.86c-3.959,1.236-6.813-1.793-9.357-4.044
		c-2.468-2.184-1.615-5.393-0.426-8.211c0.249-0.591,0.565-1.171,0.943-1.688c4.508-6.158,2.822-11.927-0.381-18.132
		c-3.784-7.329-9.66-12.517-15.703-17.691c-0.487-0.417-1.116-0.836-1.323-1.387c-1.929-5.156-6.516-7.986-10.235-11.506
		c-1.847-1.748-2.833-3.46-2.682-5.885c0.188-3.029-0.123-5.767-2.806-7.863c-0.936-0.732-1.78-2.177-1.838-3.338
		c-0.347-6.919-4.314-12.522-6.822-18.592c-1.525-3.692-4.442-6.879-8.249-9.097c-3.656-2.13-6.682-5.354-9.027-8.791
		c-3.049-4.469-6.561-8.378-10.43-12.097c-3.502-3.366-6.999-6.735-9.951-10.681c-2.091-2.795-5.642-4.143-7.946-6.997
		c-2.63-3.259-5.768-6.138-8.884-8.963c-2.585-2.344-3.595-5.394-4.37-8.535c-0.887-3.594-2.922-5.741-6.247-7.478
		c-3.448-1.801-7.154-2.985-10.516-4.933c-1.941-1.125-4.173-0.686-6.229-0.527c-7.016,0.543-12.566-2.368-17.565-6.886
		c-1.558-1.408-3.295-2.618-4.935-3.938c-0.654-0.526-1.504-1.174-2.186-0.849c-4.211,2.006-8.66-1.554-13.492,1.379
		c1.345-4.576-0.541-6.618-4.031-7.723c-1.332-0.421-2.475-0.302-2.791,0.967c-0.685,2.743-2.718,2.33-4.638,2.347
		c-1.302,0.012-2.605,0.031-3.906-0.003c-1.7-0.044-3.072,0.068-3.79,2.143c-0.667,1.924-0.593,3.261,0.81,4.842
		c2.873,3.237,2.928,4.062,1.325,6.225c-2.538,3.426-4.034,3.655-7.859,2.44c-5.162-1.639-8.732-4.484-10.469-9.847
		c-0.635-1.959-1.613-3.514-0.136-5.33c1.022-1.256,0.938-2.713,0.957-4.176c0.016-1.301,0.254-2.629,0.066-3.895
		c-0.382-2.568,5.225-4.559,0.481-7.647c-2.358-1.535-2.861-5.1-5.751-6.434c-0.92-0.425-1.845-1.363-1.464-2.297
		c1.87-4.587-3.211-6.818-3.461-10.647c-0.017-0.266-0.335-0.686-0.577-0.739c-4.341-0.953-7.406-4.646-11.696-5.538
		c-1.78-0.37-3.531-0.673-5.026-1.65c-3.457-2.259-7.325-3.039-11.199-2.256c-3.493,0.707-7.006-0.389-10.431,0.717
		c-1.811,0.585-3.003-0.709-4.225-1.84c-3.287-3.042-7.108-3.614-11.026-1.735c-0.857,0.411-1.165,1.151-0.834,2
		c0.227,0.585,0.729,1.058,1.069,1.604c0.988,1.586,4.203,2.086,3.321,4.31c-1.272,3.21-1.807,7.126-5.128,9.091
		c-2.102,1.244-3.23,3.121-4.564,4.94c-2.598,3.543-3.78,7.119-0.872,11.157c0.825,1.146,1.064,2.703,1.638,4.044
		c0.518,1.211,1.129,2.51,2.641,2.583c2.948,0.142,3.868,2.385,5.299,4.406c3.889,5.491,2.991,10.433-0.822,15.504
		c-2.054,2.732-4.023,5.486-6.534,7.833c-1.418,1.326-2.878,2.271-4.766,1.2c-1.649-0.936-1.019-2.345-0.756-3.854
		c0.469-2.701-0.648-5.012-2.58-6.96c-1.6-1.614-3.484-3.102-4.581-5.024c-2.118-3.711-4.216-7.279-3.365-12.203
		c1.022-5.91,0.057-11.988-2.056-17.704c-0.631-1.706-0.536-3.102,0.299-4.623c2.113-3.851,4.387-7.56,7.87-10.379
		c1.007-0.815,1.91-1.771,2.789-2.728c1.374-1.493,1.365-3.065-0.438-4.068c-2.246-1.249-2.975-3.282-3.614-5.51
		c-1.971-6.866-6.633-12.072-12.935-14.233c-6.312-2.165-12.872-4.181-19.65-5.077c-4.956-0.654-9.886-0.823-14.852-0.693
		c-2.663,0.07-5.125,0.943-7.226,2.521c-2.333,1.753-4.861,1.685-6.758,0.022c-4.115-3.607-8.674-6.81-11.962-11.268
		c-2.099-2.846-1.759-2.79,0.706-5.695c1.581-1.863,2.917-3.815,5.244-4.844c0.774-0.342,1.167-1.177,1.05-2.042
		c-0.128-0.947-0.887-1.22-1.75-1.37c-6.72-1.166-12.515-4.844-18.871-7.009c-1.27-0.433-2.351-0.738-3.731-0.318
		c-4.227,1.288-7.962,0.683-10.86-3.088c-0.676-0.879-1.401-2.329-3.151-1.678c-0.415,1.809,1.448,2.353,1.974,3.602
		c0.419,0.995,0.493,1.973-0.709,2.397c-0.953,0.336-2.157,0.303-2.448-0.844c-0.407-1.606-1.23-2.96-1.903-4.421
		c-0.78-1.693,0.368-2.894,1.876-3.354c3.226-0.984,4.861-2.924,4.751-6.381c-0.022-0.686,0.672-1.422,1.104-2.09
		c2.046-3.167,1.668-4.073-2.069-5.265c-3.711-1.183-7.471-2.259-10.864-4.257c-0.667-0.393-1.409-0.728-1.742-2.131
		c5.071,0.735,9.814,0.782,14.559,0.594c3.421-1.105,6.766,0.33,9.883,1.012c6.332,1.386,12.774,2.092,19.083,3.591
		c16.396,3.897,32.874,7.397,49.042,12.266c10.909,3.285,21.8,6.701,32.451,10.622c15.257,5.617,30.331,11.789,45.057,18.814
		c10.502,5.01,21.105,9.879,31.33,15.371c12.794,6.872,25.319,14.289,37.471,22.333c9.44,6.25,18.726,12.698,27.967,19.225
		c6.757,4.772,13.294,9.824,19.723,15.033c10.488,8.497,20.575,17.44,30.647,26.421c8.608,7.674,16.266,16.287,24.744,24.056
		c6.11,5.599,11.436,11.935,16.91,18.054c7.564,8.455,14.761,17.292,21.781,26.257c9.462,12.085,18.609,24.383,27.187,37.095
		c5.987,8.873,11.498,18.051,16.979,27.26c6.47,10.871,12.746,21.841,18.594,33.038c4.496,8.609,8.635,17.414,12.665,26.273
		c4.28,9.407,8.227,18.942,12.052,28.521c2.781,6.964,5.156,14.105,7.6,21.209c1.9,5.523,3.422,11.164,5.428,16.664
		c2.547,6.981,4.267,14.275,6.148,21.484c1.908,7.312,3.703,14.658,5.289,22.045c0.588,2.74,1.887,5.413,1.367,8.349
		c0.95,1.209,0.538,2.692,0.81,4.037c0.144,0.252,0.205,0.522,0.182,0.811c0.763,0.901,0.947,1.958,0.84,3.095
		c0.041,0.61,0.081,1.22,0.122,1.829c0.768,1.246,0.952,2.624,0.913,4.052c0.054,0.277,0.074,0.556,0.061,0.838
		c1.052,3.213,0.379,6.744,1.831,9.883c0.055,0.642,0.11,1.283,0.165,1.924c0.874,1.882,0.173,3.97,0.767,5.889
		c0.129,0.261,0.187,0.538,0.176,0.829c1.889,9.177,2.866,18.495,3.747,27.794c1.145,12.084,2.035,24.199,2.78,36.319
		c0.16,2.605,1.601,5.942-1.372,7.567c-2.702,1.477-4.224-1.648-6.056-3.029c-4.012-3.024-13.373-3.545-17.446-0.809
		c-1.464,0.983-1.791,2.622-2.452,4.097c-3.669,8.193-3.627,17.097-4.951,25.733c-0.468,3.054-0.714,6.118-2.08,8.965
		c-0.811,1.689-0.694,3.48-0.107,5.232c0.638,1.906,1.725,2.797,3.582,1.333c3.304-2.605,7.022-2.977,11.063-2.476
		c4.982,0.618,8.507-2.546,12.266-5.099c2.027-1.377,3.859-4.464,6.617-2.823c2.34,1.392,0.835,4.504,1.164,6.835
		c0.271,1.917-1.105,3.802-0.114,5.733c-0.027,0.662-0.055,1.324-0.083,1.986c-1.069,5.355-1.581,10.781-1.7,16.224
		c-0.067,3.038-0.357,6.072-0.242,9.114c0.158,1.023,0.109,2.023-0.32,2.983c-0.47,1.589-0.852,3.188-0.53,4.863
		c-0.051,0.657-0.103,1.315-0.154,1.972c-1.273,2.134-0.649,4.523-0.913,6.793c0.15,1.018,0.097,2.014-0.315,2.973
		c-0.497,1.899-1.105,3.783-0.755,5.793c0.126,0.715,0.053,1.395-0.348,2.019c-0.391,0.931-0.377,1.924-0.442,2.904
		c-0.077,0.66-0.154,1.319-0.232,1.979c-0.89,1.499-0.835,3.174-0.892,4.827c0.117,0.715,0.035,1.393-0.37,2.012
		c-0.353,1.259-0.731,2.515-0.617,3.849c0.095,0.724,0.001,1.407-0.449,2.009c-2.007,7.365-2.858,14.956-4.367,22.419
		c0.09,0.726-0.026,1.402-0.479,1.997c-2.227,8.423-4.495,16.836-6.365,25.349c0.116,1.109-0.408,2.033-0.859,2.977
		c-0.437,0.454-0.873,0.909-0.712,1.625l0.135,0.242c-0.915,0.473-0.981,1.166-0.513,1.995c0.101,0.782-0.09,1.469-0.661,2.034
		c-0.851,0.645-0.792,1.629-0.943,2.535c0.267,1.689-0.465,3.175-0.939,4.72c-11.618,37.879-26.797,74.268-46.052,108.899
		c-6.369,11.455-13.353,22.575-20.265,33.719c-12.488,20.132-26.665,39.085-41.301,57.672c-6.698,8.506-14.275,16.317-21.435,24.46
		c-8.591,9.772-17.69,19.068-27.181,27.945c-10.106,9.453-20.376,18.727-31.062,27.558c-17.181,14.199-34.993,27.501-53.686,39.616
		c-13.479,8.736-27.355,16.8-41.377,24.658c-14.323,8.026-28.925,15.399-44.013,21.81c-13.01,5.528-26.158,10.738-39.592,15.156
		c-12.691,4.174-25.381,8.465-38.405,11.401c-5.167,1.165-10.595,1.891-15.574,3.472c-8.393,2.664-16.974,4.162-25.529,5.871
		c-6.517,1.301-13.047,2.669-19.701,3.184c-1.648-0.329-3.162,0.505-4.767,0.55c-0.621,0.436-1.307,0.584-2.053,0.466
		c-1.656-0.414-3.172,0.489-4.782,0.506c-0.646,0.404-1.344,0.529-2.091,0.387c-4.246-0.158-8.384,0.755-12.567,1.245
		c-7.187,0.842-9.634-1.567-10.313-8.745c-0.862-9.114,0.072-18.178,0.072-27.264c0.001-113.851,0.002-227.703-0.007-341.554
		c0-4.394,0.498-8.714,1.026-13.079c0.654-5.408-0.944-10.858-1.025-16.385c-0.192-13.102,0.545-14.197,13.802-14.207
		c33.159-0.026,66.317,0.008,99.476-0.007c11.292-0.005,11.529,0.043,14.126-10.566c6.739-27.528,13.471-55.059,20.059-82.624
		c2.181-9.126,5.373-18.021,6.326-27.43c0.512-6.115,2.782-11.839,4-17.804c1.345-6.589,3.2-13.074,4.876-19.594
		c0.154-0.598,0.619-1.115,0.94-1.67c0.958-2.085-0.057-3.057-1.997-3.376c-0.954-0.157-1.944-0.045-2.918-0.045
		c-50.322,0-100.645-0.003-150.967,0.015c-1.435,0.001-2.93-0.34-4.296,0.435c-4.602,0.135-4.618,0.135-4.639-4.173
		c-0.034-7.037,0.794-14.077-0.071-21.112c-1.493-6.574-0.971-13.289-0.966-19.908c0.01-12.521,0.141-25.029-0.164-37.558
		c-0.201-8.253,0.292-16.573,0.451-24.863c0.026-1.325,0.363-2.573,1.132-3.679c0.656-10.699,3.637-20.726,8.91-30.038
		c5.989-10.575,14.557-18.584,25.119-24.463c6.95-3.869,14.182-7.119,21.98-8.936c4.272-0.647,8.465-1.685,12.688-2.576
		c0.961-0.374,1.95-0.436,2.959-0.26c30.75-0.262,61.501-0.037,92.252-0.119c2.439-0.007,4.882,0.128,7.315-0.164
		c0.405-0.271,0.811-0.541,1.216-0.812c0.398-1.104,0.27-2.253,0.27-3.386c0.006-46.872,0.006-93.744,0-140.616
		c0-1.133,0.135-2.283-0.272-3.385c-4.098-1.861-8.57-1.408-12.861-1.934c-20.206-2.476-40.518-3.125-60.862-3.213
		c-21.31-0.092-42.625-0.355-63.924,0.344c-23.758,0.78-47.376,2.909-70.344,9.619c-20.471,5.981-39.13,15.525-56.831,27.428
		c-12.086,8.127-22.457,18.014-31.822,28.791c-16.971,19.53-27.994,42.305-33.58,67.684c-4.353,19.778-6.587,39.79-6.689,59.992
		c-0.222,44.082-0.125,88.166-0.158,132.249c0,0.488,0.01,0.976,0.009,1.464c-0.016,3.829-0.017,3.842-4.071,3.833
		c-15.291-0.035-30.581-0.074-45.872-0.128c-1.297-0.005-2.594-0.122-3.891-0.187c-5.655-0.769-11.339-0.299-17.006-0.315
		c-17.056-0.047-34.112-0.104-51.169,0.026c-0.669,0.159-1.338,0.319-2.007,0.478c-0.912,0.871-0.657,1.855-0.277,2.851
		c0.326,3.288,0.33,6.575,0,9.863c-0.357,0.62-0.357,1.239,0.001,1.859c0.002,1.012,0.003,2.025,0.005,3.037
		c-0.524,5.169-0.524,10.338,0,15.506c0.328,4.271,0.327,8.541,0.004,12.812c-0.508,3.218-0.519,6.435,0.008,9.652
		c0.001,0.688,0.001,1.376,0.002,2.064c-0.745,14.67-0.192,29.35-0.293,44.024c-0.031,4.495-0.487,9.018,0.346,13.497
		c0.063,13.004,0.126,26.008,0.187,39.011c0.004,0.813-0.014,1.626-0.013,2.439c0.012,4.74,0.013,4.768,4.824,4.759
		c37.726-0.074,75.451-0.16,113.177-0.242c0.65-0.001,1.301-0.019,1.951-0.015c4.286,0.026,4.281,0.027,4.279,4.212
		c-0.045,100.005-0.088,200.011-0.142,300.016c-0.001,2.109-0.131,4.218-0.201,6.327c-0.724,13.652-0.649,27.305-0.042,40.959
		c0.001,0.674,0.001,1.348,0.002,2.022c-0.637,9.416-0.608,18.833-0.012,28.25c0.302,9.788,0.293,19.575-0.002,29.363
		c-1.971,5.116-1.971,5.116-9.237,3.99c-0.46,0.359-0.909,0.24-1.354-0.033c-0.564-0.661-1.22-0.672-1.935-0.277
		c-0.715,0.115-1.386,0.011-1.992-0.409c-1.252-0.369-2.427-1.173-3.831-0.674c-0.745,0.099-1.425-0.063-2.032-0.511
		c-0.962-0.09-1.855-0.629-2.86-0.443c-0.766,0.138-1.464,0.009-2.059-0.526c-2.14-0.972-4.486-0.955-6.734-1.407
		c-0.779,0.134-1.462-0.055-2.042-0.599c-0.946-1.064-2.364-0.443-3.461-0.97l-0.371,0.013c-7.297-2.145-14.737-3.75-22.04-5.873
		l-0.242,0.121l-0.204-0.178c-3.969-1.758-8.243-2.53-12.361-3.805l-0.27,0.092c-1.92-1.408-4.28-1.457-6.452-2.086l-0.255,0.106
		l-0.201-0.189c-0.431-0.521-0.896-0.973-1.661-0.815c-0.486,0.406-0.884,0.162-1.271-0.171c-1.707-0.918-3.628-1.212-5.429-1.855
		l-0.235,0.112l-0.187-0.18c-0.427-0.537-0.895-0.993-1.67-0.828l-0.164,0.175c-0.603-1.115-1.732-0.99-2.735-1.162l-0.22,0.124
		c-0.712-1.347-2.229-0.505-3.191-1.173l0.094,0.065c-0.598-0.916-1.612-0.807-2.498-1.016l-0.329-0.004
		c-1.53-1.088-3.353-1.415-5.091-1.962l0.1,0.067c-0.59-0.938-1.61-0.824-2.502-1.024l-0.32-0.002
		c-0.53-0.789-1.448-0.673-2.2-0.941l0.108,0.075c-0.536-1.031-1.585-0.878-2.482-1.074c-3.006-0.221-5.532-1.828-8.194-2.966
		c-20.574-8.794-40.861-18.192-60.319-29.289c-38.341-21.865-73.758-47.745-106.308-77.543
		c-37.283-34.131-69.531-72.504-96.909-114.996c-35.438-55.001-61.535-114.086-77.584-177.531
		c-4.905-19.39-8.532-39.07-11.23-58.895c-4.324-31.768-5.79-63.71-4.81-95.734c1.207-39.447,6.254-78.404,15.645-116.785
		c6.462-26.415,14.778-52.205,24.751-77.494c0.578-1.465,1.833-1.945,2.306-3.386c5.791-17.643,13.916-34.267,22.457-50.7
		c12.135-23.347,25.569-45.909,40.691-67.456c8.551-12.185,17.702-23.902,26.893-35.61c17.118-21.804,36.907-41.057,56.739-60.266
		c7.648-7.408,15.722-14.429,24.057-21.055c5.027-3.997,10.143-7.987,15.571-11.458c2.207-1.411,2.974-4.301,5.703-4.988
		c1.687-0.551,3.176-1.37,4.047-3.016l-0.028,0.038c1.695-0.504,3.077-1.432,4.01-2.967c0.63-0.954,1.529-1.537,2.596-1.891
		c0.662-0.427,2.01,0.149,1.953-1.332l0.037,0.036c0.892,0.414,1.032-0.181,1.126-0.839l-0.057,0.097
		c0.662,0.037,0.956-0.4,1.183-0.921l-0.068,0.048c0.589-0.439,1.767-0.043,1.803-1.269l0.042,0.335l-0.087-0.326
		c1.112-0.049,1.602-0.961,2.263-1.636c0.327-0.658,0.892-0.948,1.593-1.027c0.67-0.418,1.965,0.104,1.973-1.311l0.015,0.053
		c0.834,0.35,1.009-0.226,1.165-0.829l-0.045,0.045c0.646-0.336,1.846,0.152,1.8-1.212l0.381,0.074l-0.375-0.103
		c1.157,0.062,1.62-0.893,2.28-1.557c0.753-0.947,1.747-1.528,2.88-1.899c0.562-0.53,1.602-0.259,1.943-1.159l-0.082,0.056
		c1.669-0.433,2.914-1.509,4.089-2.691c0.064-0.233,0.209-0.308,0.435-0.223c0.772-0.34,2.024,0.121,2.15-1.293l-0.018-0.038
		c1.138,0.082,1.604-0.865,2.283-1.488l-0.01,0.008c1.603-1.021,3.707-1.249,4.818-3.047l-0.029,0.041
		c0.664-0.4,1.691-0.213,1.98-1.223c0.184-0.472,0.549-0.652,1.032-0.642c2.244-1.375,5.071-1.77,6.786-4.034l-0.031,0.037
		c1.09-0.497,2.249-0.88,3.066-1.834l0.157-0.198l0.244,0.067c0.713,0.007,1.168-0.389,1.508-0.965l-0.06,0.031
		c1.712-0.858,3.645-1.332,4.977-2.854c0.495-0.628,1.126-0.995,1.938-1.023c3.613-0.944,6.559-3.147,9.632-5.109l-0.05,0.062
		c2.06-0.809,4.327-1.218,5.858-3.045l-0.02,0.062c10.259-4.61,20.472-9.318,30.459-14.499c0.504-0.652,1.19-0.891,1.989-0.872
		c1.944-0.591,4.198-0.44,5.595-2.339L522.176,214.379z"/>
	<path style="fill:#F9F8F5;" d="M807.691,1077.15c-1.041,0.161-1.895,0.568-1.947,1.772c-0.063,1.462-0.076,2.926-0.077,4.39
		c-0.004,31.243-0.067,62.487,0.058,93.73c0.022,5.378-1.346,10.588-1.082,15.988c1.889,38.614,0.703,77.258,1.012,115.889
		c0.025,3.076-0.003,6.11-0.837,9.17c-0.933,3.42-1.27,6.978-1.167,10.59c0.096,3.348-0.327,3.377-3.754,2.572
		c-3.333-0.783-6.611-2.115-9.375-3.737c-4.078-2.393-6.357-6.764-7.316-11.581c-1.699-8.532-0.802-17.161-0.923-25.747
		c-0.029-2.068,0.599-4.145,0.924-6.219c2.93-18.714,2.103-37.578,1.78-56.374c-0.168-9.788-0.063-19.58,0.441-29.303
		c0.271-5.233-0.132-10.705,1.503-15.893c0.276-0.875,0.042-1.93-0.049-2.893c-0.045-0.471-0.353-0.911-0.457-1.384
		c-0.342-1.551,0.148-21.401,0.24-23.075c0.271-4.953,0.668-9.937,0.05-14.866c-0.221-1.757-0.661-3.504-0.568-5.285
		c0.355-6.852-0.362-13.653-2.095-20.216c-1.31-4.957-0.972-9.996-1.504-14.942c-0.635-5.903-1.367-11.9-1.314-17.907
		c0.105-12.01-1.982-24.003-0.845-35.99c0.718-7.567,0.686-15.159,1.584-22.728c1.202-10.134,1.942-20.393,1.126-30.601
		c-0.773-9.677-1.097-19.401-2.089-29.023c-0.714-6.922-0.499-13.869-1.405-20.801c-0.848-6.488-1.153-13.282,0.478-19.873
		c0.23-0.93,0.266-1.953,0.169-2.911c-0.722-7.159,2.568-12.969,6.464-18.426c4.768-6.678,15.162-9.012,22.649-5.628
		c3.859,1.744,7.609,3.571,10.794,6.429c0.661,0.593,1.049,1.189,1.131,2.032c-1.38,1.456-3.201,1.358-4.984,1.44
		c-6.98,0.321-7.257,0.577-7.222,7.756c0.096,19.967-0.048,39.933-0.018,59.9c0.003,2.263,0.227,4.556-0.584,6.753
		c-0.688,1.441-1.435,2.823-1.436,4.532c-0.008,11.264-0.046,22.529,0.033,33.793c0.008,1.144,0.228,2.238,0.846,3.223
		c0.349,0.77,0.446,1.572,0.292,2.4c-1.801,4.07-1.93,8.141,0.054,12.207c0.31,1.064,0.249,2.105-0.169,3.128
		c-1.569,2.332-1.17,4.995-1.041,7.517c0.32,6.229-1.033,12.535,0.826,18.686c0.326,0.688,0.442,1.412,0.341,2.163
		c-1.288,2.236-1.755,4.478,0.016,6.722C808.476,1075.491,808.439,1076.397,807.691,1077.15z"/>
	<path style="fill:#F9F8F5;" d="M808.257,631.819c-0.028,10.531-0.075,21.061-0.081,31.591c-0.011,17.021,0.012,34.042-0.008,51.063
		c-0.001,1.118-0.237,2.236-0.364,3.354c-1.757-0.047-2.38,1.025-2.11,2.513c1.196,6.576-2.866,12.251-3.103,18.576
		c-0.039,1.047-0.759,1.887-1.79,2.07c-2.958,0.523-5.879,1.426-8.603-1.123c-2.555-2.391-4.634-5.084-5.847-8.271
		c-2.018-5.303-3.342-10.859-5.674-16.061c-0.622-1.388-0.397-2.885-0.397-4.34c-0.011-20.017-0.124-40.036,0.068-60.051
		c0.053-5.489,1.094-10.921,4.345-15.682c1.172-1.716,1.951-3.671,2.504-5.768c1.002-3.796,2.251-7.587,7.228-7.98
		c0.89-0.07,1.732-0.843,2.581-1.319c3.039-1.701,3.456-1.579,5.184,1.584c1.176,2.153,2.093,4.432,2.441,6.847
		C804.957,631.064,806.137,631.924,808.257,631.819z"/>
	<path style="fill:#4C599F;" d="M807.691,1077.15c0.313-0.975,0.321-1.952,0.008-2.929c-1.42-1.961-1.446-3.917,0.023-5.866
		c0.002-0.648,0.004-1.295,0.006-1.943c-1.13-1.149-1.067-2.618-1.072-4.06c-0.022-6.41-0.021-12.819,0-19.229
		c0.005-1.442-0.057-2.911,1.063-4.065c0.318-0.974,0.314-1.948-0.007-2.921c-1.683-3.906-1.659-7.814-0.017-11.725
		c-0.001-0.65-0.002-1.299-0.003-1.949c-0.967-1.044-1.032-2.344-1.035-3.659c-0.023-11.555-0.023-23.109,0-34.664
		c0.003-1.313,0.061-2.615,1.009-3.671c0.087-1.778,0.244-3.555,0.252-5.333c0.096-21.748,0.188-43.497,0.24-65.246
		c0.014-5.772-0.111-5.084,5.363-5.272c2.589-0.089,5.178-0.206,7.767-0.31c1.621,0.069,3.242,0.198,4.864,0.199
		c33.849,0.036,67.698,0.057,101.547,0.082c0.976,0.001,1.965-0.091,2.927,0.026c2.468,0.3,3.388-0.886,3.903-3.201
		c2.151-9.676,4.43-19.324,6.762-28.958c4.358-18.007,8.853-35.98,13.158-53.999c2.517-10.537,5.497-20.965,7.53-31.619
		c0.114-0.598,0.591-1.127,0.899-1.688c0.216,0.236,0.652,0.516,0.615,0.703c-0.802,4.056,0.228,8.475-2.203,12.191
		c-1.436,2.195-0.934,4.748-1.645,7.031c-3.128,10.034-5.259,20.331-7.64,30.537c-1.279,5.482-2.628,11.035-4.129,16.4
		c-1.872,6.692-2.885,13.566-4.744,20.26c-1.482,5.337-3.66,10.695-3.768,16.441c-0.027,1.411-0.656,2.836-1.138,4.209
		c-0.916,2.607-1.73,5.173-1.786,8.023c-0.064,3.324-1.43,4.624-4.634,5.27c-3.5,0.706-7.012,1.061-10.61,1.052
		c-27.34-0.071-54.683,0.134-82.02-0.157c-7.086-0.075-14.157,0.168-21.235,0.123c-1.616-0.01-3.225-0.108-4.78,0.646
		c-1.61,0.78-2.648,1.803-2.612,3.707c0.037,1.952-0.116,3.914,0.022,5.856c0.205,2.879,0.501,5.726,0.025,8.626
		c-0.23,1.402-0.496,3.113,0.454,4.277c2.105,2.579,1.521,5.168,0.408,7.788c-1.061,2.495-0.916,5.084-0.916,7.679
		c0.001,114.732,0.002,229.465-0.005,344.197c0,4.049-0.167,8.049-0.834,12.099c-1.062,6.448,0.682,12.908,0.942,19.38
		c0.095,2.365,2.47,4.517,4.909,4.617c2.575,0.106,5.165,0.306,7.755-0.396c2.823-0.765,5.736-0.99,8.592,0.058
		c-6.712,1.294-13.538,1.637-20.314,2.377c-3.396,0.371-3.492,0.239-3.573-3.325c-0.088-3.898,0.006-7.8,0.004-11.701
		c-0.039-77.037-0.078-154.073-0.128-231.11C807.889,1080.389,807.76,1078.769,807.691,1077.15z"/>
	<path style="fill:#4C599F;" d="M1334.835,780.242c-1.502-1.688-0.63-3.737-0.842-5.619c-0.246-2.177,0.458-4.47-0.709-7.074
		c-2.463,1.846-4.735,3.316-6.719,5.105c-1.87,1.686-4.151,2.527-6.261,3.723c-1.953,1.108-4.048,1.27-6.143,0.703
		c-3.902-1.057-7.17-0.51-9.917,2.799c-1.887,2.273-4.261,1.724-5.065-1.159c-0.838-3.006-2.388-6.137,0.507-9.109
		c1.141-1.172,0.947-3.005,1.143-4.634c0.866-7.207,1.394-14.461,2.851-21.59c0.715-3.5,2.681-6.582,3.269-10.166
		c0.266-1.621,1.819-2.802,3.649-2.693c3.149,0.187,6.151-0.697,9.085-1.437c2.414-0.609,4.24-0.16,5.804,1.32
		c1.766,1.67,4.264,2.459,5.523,4.713c0.422,0.756,1.081,1.242,2.005,0.858c0.914-0.38,0.94-1.249,0.947-2.058
		c0.023-2.767,0.435-5.612-0.061-8.286c-1.598-8.61-1.278-17.401-2.728-26.015c-0.267-1.586-0.169-3.25-0.102-4.873
		c0.17-4.088-0.695-8.023-1.299-12.034c-0.887-5.887-1.936-11.822-1.577-17.845c1.702,1.005,1.405,2.849,1.613,4.34
		c5.055,36.208,7.057,72.57,5.28,109.111C1335.056,778.964,1334.921,779.602,1334.835,780.242z"/>
	<path style="fill:#4C599F;" d="M979.48,565.263c-0.77,1.512-2.191,1.132-3.437,1.133c-30.827,0.013-61.654,0.011-92.481,0.001
		c-1.27,0-2.629,0.271-3.649-0.851c4.007-0.755,8.071-0.622,12.111-0.672c28.035-0.351,56.071-0.293,84.106-0.01
		C977.248,564.875,978.363,565.125,979.48,565.263z"/>
	<path style="fill:#4C599F;" d="M812.514,743.112c1.307-1.429,3.035-0.901,4.595-0.902c50.514-0.027,101.029-0.024,151.543-0.025
		c0.812,0,1.631-0.054,2.435,0.026c2.528,0.253,2.648,0.568,1.605,3.871c-0.042-0.649-0.083-1.299-0.125-1.948
		c-0.237-0.336-0.533-0.611-0.878-0.833c-2.105-0.054-4.21-0.157-6.315-0.155c-49.659,0.04-99.319,0.092-148.978,0.133
		C815.102,743.281,813.808,743.171,812.514,743.112z"/>
	<path style="fill:#4C599F;" d="M980.695,417.063c1.226,1.402,0.734,3.105,0.735,4.679c0.025,46.007,0.024,92.013,0.002,138.02
		c-0.001,1.581,0.452,3.277-0.735,4.69c-0.029-20.661-0.083-41.321-0.08-61.981C980.62,474.002,980.667,445.532,980.695,417.063z"/>
	<path style="fill:#4C599F;" d="M521.624,742.717c1.336-0.859,2.834-0.518,4.265-0.519c19.759-0.019,39.519-0.023,59.278,0.01
		c1.564,0.003,3.27-0.506,4.631,0.798c-13.639,0.05-27.278,0.182-40.917,0.122C539.795,743.09,530.7,743.472,521.624,742.717z"/>
	<path style="fill:#4C599F;" d="M514.605,217.652c-0.558,1.44-1.573,2.393-3.008,2.969c-7.796,3.132-15.348,6.792-22.836,10.591
		c-1.45,0.735-2.893,1.525-4.615,0.94C493.915,226.513,504.107,221.762,514.605,217.652z"/>
	<path style="fill:#4C599F;" d="M519.412,858.361c-1.129-1.02-0.848-2.382-0.849-3.652c-0.013-16.731-0.014-33.462-0.001-50.194
		c0.001-1.269-0.287-2.63,0.798-3.676c0.081,9.099,0.221,18.198,0.227,27.297C519.592,838.211,519.475,848.286,519.412,858.361z"/>
	<path style="fill:#4C599F;" d="M1332.81,807.566c-1.633-5.519-0.808-11.146-0.439-16.695c0.135-2.026,0.643-4.097,0.64-6.186
		c-0.002-1.258,0.332-2.225,1.741-2.457C1334.552,790.708,1334.118,799.171,1332.81,807.566z"/>
	<path style="fill:#4C599F;" d="M643.433,1255.827c-1.122-1.024-0.846-2.387-0.847-3.659c-0.014-11.221-0.013-22.441,0-33.662
		c0.001-1.272-0.272-2.638,0.889-3.638C643.787,1228.522,643.747,1242.175,643.433,1255.827z"/>
	<path style="fill:#4C599F;" d="M1315.261,902.307c-0.49-0.464-0.886-1.05-0.673-1.701c2.456-7.468,4.008-15.169,5.974-22.763
		c0.094-0.362,0.697-0.593,1.063-0.884C1320.129,885.565,1317.944,893.999,1315.261,902.307z"/>
	<path style="fill:#4C599F;" d="M1322.105,874.961c-0.851-0.729-1.01-1.751-0.686-2.668c1.791-5.064,2.471-10.307,3-15.62
		c0.138-1.382,0.24-3.33,2.053-4.131C1325.565,860.122,1324.225,867.618,1322.105,874.961z"/>
	<path style="fill:#4C599F;" d="M583.473,1307.741c5.261-0.184,9.94,2.321,14.955,3.302c2.428,0.475,5.166,0.52,7.085,2.57
		C598.006,1312.259,590.579,1310.604,583.473,1307.741z"/>
	<path style="fill:#4C599F;" d="M643.424,1286.099c-0.812-0.727-0.845-1.697-0.844-2.683c0.002-7.63,0.002-15.26,0-22.891
		c0-0.986,0.035-1.955,0.856-2.676C643.779,1267.266,643.793,1276.682,643.424,1286.099z"/>
	<path style="fill:#4C599F;" d="M876.954,565.807c-0.131,0.289-0.221,0.8-0.4,0.834c-4.068,0.768-7.993,2.586-12.288,1.742
		C868.351,566.814,872.587,565.988,876.954,565.807z"/>
	<path style="fill:#4C599F;" d="M634.185,1319.451c3.694,0.093,7.326,0.044,9.237-3.99c0.561,6.189,1.009,6.427-5.615,5.087
		C636.569,1320.298,635.178,1320.516,634.185,1319.451z"/>
	<path style="fill:#4C599F;" d="M478.357,235.071c-2.12,3.255-5.515,4.534-8.952,5.724c-0.139,0.048-0.449-0.399-0.68-0.615
		C471.702,238.036,474.895,236.3,478.357,235.071z"/>
	<path style="fill:#4C599F;" d="M570.667,1303.88c4.396,0.373,8.752,0.873,12.36,3.805
		C578.8,1306.766,574.509,1306.051,570.667,1303.88z"/>
	<path style="fill:#4C599F;" d="M1327.085,656.229c-2.968-2.857-1.596-6.519-1.831-9.883
		C1326.699,649.486,1327.299,652.782,1327.085,656.229z"/>
	<path style="fill:#4C599F;" d="M519.346,776.312c-1.265-5.169-1.266-10.338,0-15.507
		C519.693,765.974,519.693,771.143,519.346,776.312z"/>
	<path style="fill:#4C599F;" d="M1330.892,824.177c-1.024-2.443-2.015-4.882,0.913-6.793
		C1331.958,819.71,1331.394,821.94,1330.892,824.177z"/>
	<path style="fill:#4C599F;" d="M456.927,246.92c-1.047,3.388-3.888,3.76-6.786,4.034
		C452.149,249.181,454.44,247.887,456.927,246.92z"/>
	<path style="fill:#4C599F;" d="M1328.018,664.042c-0.865-1.883-2.101-3.719-0.767-5.889
		C1329.462,659.861,1328.045,662.042,1328.018,664.042z"/>
	<path style="fill:#4C599F;" d="M522.188,214.441c-1.539,2.651-2.592,3.091-5.595,2.339
		C518.285,215.585,520.144,214.791,522.188,214.441z"/>
	<path style="fill:#4C599F;" d="M484.166,232.088c-0.964,2.914-3.259,3.271-5.857,3.046
		C479.998,233.614,481.979,232.654,484.166,232.088z"/>
	<path style="fill:#4C599F;" d="M519.357,798.776c-1.299-3.217-1.29-6.434-0.008-9.653
		C519.686,792.341,519.693,795.558,519.357,798.776z"/>
	<path style="fill:#4C599F;" d="M1329.822,832.943c-0.92-2.084-1.649-4.143,0.755-5.793
		C1330.706,829.131,1330.296,831.041,1329.822,832.943z"/>
	<path style="fill:#4C599F;" d="M447.158,252.777c-0.393,2.934-2.606,2.99-4.818,3.047
		C443.698,254.416,445.358,253.486,447.158,252.777z"/>
	<path style="fill:#4C599F;" d="M1331.96,815.412c-1.228-1.774-1.806-3.478,0.53-4.863
		C1332.69,812.211,1332.336,813.813,1331.96,815.412z"/>
	<path style="fill:#4C599F;" d="M466.788,241.203c-0.607,2.785-2.741,2.908-4.977,2.854
		C463.26,242.74,464.924,241.798,466.788,241.203z"/>
	<path style="fill:#4C599F;" d="M1327.908,844.672c-0.978-1.845-1.754-3.652,0.892-4.827
		C1328.868,841.521,1328.364,843.092,1327.908,844.672z"/>
	<path style="fill:#4C599F;" d="M611.387,1315.17c2.573-1.102,4.686-0.001,6.734,1.407
		C615.777,1316.584,613.552,1316.023,611.387,1315.17z"/>
	<path style="fill:#4C599F;" d="M437.501,258.858c-0.253,2.583-1.9,3.048-4.089,2.692
		C434.513,260.255,435.92,259.424,437.501,258.858z"/>
	<path style="fill:#4C599F;" d="M833.992,1325.379c1.406-1.943,3.087-1.299,4.782-0.506
		C837.214,1325.356,835.635,1325.671,833.992,1325.379z"/>
	<path style="fill:#4C599F;" d="M563.945,1301.886c2.445-0.216,4.843-0.289,6.451,2.085
		C568.101,1303.727,565.904,1303.175,563.945,1301.886z"/>
	<path style="fill:#4C599F;" d="M409.093,278.115c-0.003,2.79-1.688,3.308-4.01,2.968
		C406.1,279.661,407.522,278.787,409.093,278.115z"/>
	<path style="fill:#4C599F;" d="M405.111,281.044c0.124,2.981-1.799,3.217-4.047,3.016
		C401.982,282.477,403.555,281.772,405.111,281.044z"/>
	<path style="fill:#4C599F;" d="M840.828,1324.407c1.385-1.957,3.073-1.275,4.767-0.55
		C844.044,1324.374,842.465,1324.642,840.828,1324.407z"/>
	<path style="fill:#4C599F;" d="M1326.921,850.533c-1.035-1.482-1.4-2.857,0.617-3.849
		C1327.707,848.027,1327.392,849.293,1326.921,850.533z"/>
	<path style="fill:#4C599F;" d="M1325.193,645.508c-1.439-1.095-0.848-2.647-0.913-4.052
		C1325.857,642.52,1326.089,643.887,1325.193,645.508z"/>
	<path style="fill:#4C599F;" d="M555.129,1298.962c2.112-0.267,4.008,0.1,5.429,1.855
		C558.576,1300.705,556.757,1300.114,555.129,1298.962z"/>
	<path style="fill:#4C599F;" d="M1324.158,639.627c-1.127-0.802-0.877-1.978-0.84-3.095
		C1324.822,637.232,1324.86,638.329,1324.158,639.627z"/>
	<path style="fill:#4C599F;" d="M1323.136,635.721c-1.309-1.137-0.748-2.649-0.81-4.037
		C1324.252,632.698,1323.38,634.273,1323.136,635.721z"/>
	<path style="fill:#4C599F;" d="M1329.032,837.866c-1.228-1.178-1.252-2.172,0.443-2.904
		C1329.686,835.985,1329.434,836.937,1329.032,837.866z"/>
	<path style="fill:#4C599F;" d="M625.073,1318.058c1.48-0.927,2.864-1.312,3.831,0.674
		C627.559,1318.893,626.312,1318.501,625.073,1318.058z"/>
	<path style="fill:#4C599F;" d="M538.902,1293.113c2.06-0.288,3.812,0.223,5.091,1.962
		C542.108,1294.909,540.409,1294.261,538.902,1293.113z"/>
	<path style="fill:#4C599F;" d="M620.18,1317.104c1.125-0.96,2.113-1.034,2.86,0.443
		C622.025,1317.8,621.087,1317.55,620.18,1317.104z"/>
	<path style="fill:#4C599F;" d="M459.962,245.123c-0.159,2.054-1.59,1.98-3.066,1.835
		C457.678,245.945,458.753,245.421,459.962,245.123z"/>
	<path style="fill:#4C599F;" d="M428.67,264.551c-0.099,1.482-0.728,2.192-2.279,1.56
		C426.944,265.288,427.682,264.737,428.67,264.551z"/>
	<path style="fill:#4C599F;" d="M442.35,255.816c-0.122,1.471-0.768,2.143-2.281,1.491
		C440.646,256.527,441.391,256.007,442.35,255.816z"/>
	<path style="fill:#4C599F;" d="M419.885,270.418c-0.082,1.471-0.741,2.147-2.261,1.638
		C418.15,271.196,418.894,270.636,419.885,270.418z"/>
	<path style="fill:#4C599F;" d="M519.34,746.046c-1.039-1.06-1.066-2.022,0.277-2.851
		C519.525,744.146,519.432,745.096,519.34,746.046z"/>
	<path style="fill:#4C599F;" d="M605.884,1313.601c1.251-0.025,2.613-0.445,3.461,0.97
		C608.095,1314.594,606.862,1314.553,605.884,1313.601z"/>
	<path style="fill:#4C599F;" d="M546.726,1296.029c1.259-0.142,2.507-0.258,3.19,1.172
		C548.761,1297.064,547.569,1297.023,546.726,1296.029z"/>
	<path style="fill:#4C599F;" d="M423.45,268.08c-0.019,1.398-1,1.346-1.972,1.311C421.911,268.618,422.611,268.245,423.45,268.08z"
		/>
	<path style="fill:#4C599F;" d="M544.322,1295.079c1.01-0.099,1.985-0.111,2.497,1.015
		C545.858,1296.074,544.957,1295.904,544.322,1295.079z"/>
	<path style="fill:#4C599F;" d="M417.667,272.045c-0.03,1.233-0.867,1.321-1.802,1.269
		C416.222,272.546,416.894,272.224,417.667,272.045z"/>
	<path style="fill:#4C599F;" d="M550.137,1297.079c1.15-0.177,2.154-0.013,2.734,1.16
		C551.838,1298.143,550.802,1298.047,550.137,1297.079z"/>
	<path style="fill:#4C599F;" d="M413.643,274.892c0.031,1.443-0.98,1.36-1.953,1.332
		C412.126,275.465,412.816,275.078,413.643,274.892z"/>
	<path style="fill:#4C599F;" d="M519.341,757.768c-0.853-0.619-0.859-1.239-0.001-1.859
		C519.341,756.529,519.341,757.148,519.341,757.768z"/>
	<path style="fill:#4C599F;" d="M533.98,1291.213c0.944-0.18,1.742-0.017,2.2,0.941C535.32,1292.137,534.5,1292.026,533.98,1291.213
		z"/>
	<path style="fill:#4C599F;" d="M1313.312,909.146c-1.008-0.966-0.547-1.556,0.512-1.994
		C1313.654,907.816,1313.483,908.481,1313.312,909.146z"/>
	<path style="fill:#4C599F;" d="M449.108,251.595c-0.237,1.092-1.03,1.284-1.979,1.223
		C447.547,252.02,448.324,251.802,449.108,251.595z"/>
	<path style="fill:#4C599F;" d="M440.086,257.342c-0.105,1.446-1.148,1.332-2.149,1.293
		C438.445,257.858,439.211,257.51,440.086,257.342z"/>
	<path style="fill:#4C599F;" d="M433.493,261.493c-0.273,1.016-1.061,1.166-1.943,1.159
		C432.011,261.953,432.67,261.586,433.493,261.493z"/>
	<path style="fill:#4C599F;" d="M426.384,266.137c0.026,1.331-0.832,1.352-1.799,1.213
		C424.957,266.608,425.637,266.323,426.384,266.137z"/>
	<path style="fill:#4C599F;" d="M531.606,1290.213c1.029-0.109,2.021-0.134,2.482,1.073
		C533.126,1291.24,532.22,1291.063,531.606,1290.213z"/>
	<path style="fill:#4C599F;" d="M630.896,1319.141c0.784-0.882,1.416-0.696,1.935,0.277
		C632.186,1319.325,631.541,1319.233,630.896,1319.141z"/>
	<path style="fill:#4C599F;" d="M1311.708,913.715c-0.129-1.01-0.137-1.975,0.943-2.535
		C1312.63,912.134,1312.585,913.079,1311.708,913.715z"/>
	<path style="fill:#4C599F;" d="M536.5,1292.156c1.016-0.104,1.994-0.119,2.501,1.023
		C538.041,1293.149,537.13,1292.995,536.5,1292.156z"/>
	<path style="fill:#4C599F;" d="M1313.69,906.909c-0.044-0.665,0.164-1.219,0.712-1.625
		C1314.456,905.954,1314.347,906.552,1313.69,906.909z"/>
	<path style="fill:#F9F8F5;" d="M971.69,743.303c0.639-0.088,1.011,0.107,0.878,0.833
		C972.276,743.858,971.983,743.58,971.69,743.303z"/>
	<path style="fill:#4C599F;" d="M561.829,1300.988c0.704-0.036,1.27,0.212,1.661,0.815
		C562.794,1301.821,562.178,1301.676,561.829,1300.988z"/>
	<path style="fill:#4C599F;" d="M424.629,267.304c-0.116,0.655-0.471,0.977-1.162,0.831
		C423.654,267.578,424.086,267.363,424.629,267.304z"/>
	<path style="fill:#4C599F;" d="M461.871,244.027c-0.306,0.627-0.83,0.913-1.506,0.964
		C460.698,244.408,461.207,244.096,461.871,244.027z"/>
	<path style="fill:#4C599F;" d="M414.806,274.09c-0.069,0.685-0.406,1.016-1.124,0.842
		C413.86,274.387,414.275,274.16,414.806,274.09z"/>
	<path style="fill:#4C599F;" d="M415.932,273.266c-0.171,0.592-0.554,0.913-1.182,0.921
		C414.93,273.606,415.361,273.347,415.932,273.266z"/>
	<path style="fill:#4C599F;" d="M553.037,1298.066c0.712-0.038,1.28,0.217,1.67,0.828
		C554.009,1298.903,553.384,1298.763,553.037,1298.066z"/>
	<path style="fill:#4A579F;" d="M816.282,300.985c-1.3-1.524-3.068,0.408-3.34-1.158c-0.257-1.477,0.728-2.633,2.525-2.955
		c4.655-0.834,7.333-3.532,7.831-8.405c0.29-2.841,2.451-5.223,2.185-8.312c-0.082-0.954,1.113-1.404,2.043-1.83
		c2.898-1.329,5.159-3.172,5.653-6.681c0.248-1.763,1.246-3.245,2.974-4.234c1.24-0.71,2.219-1.88,3.297-2.863
		c0.601-0.548,1.069-1.387,1.766-1.658c3.38-1.31,6.501-2.605,9.133-5.55c1.987-2.223,5.428-0.12,6.117,3.225
		c0.096,0.465,0.234,0.922,0.447,1.754c6.153-3.714,9.468,1.55,13.764,4.023c-0.685,1.765-1.655,0.471-2.426,0.403
		c-1.605-0.143-2.852,0.633-3.984,1.541c-1.148,0.92-1.097,2.31-0.854,3.613c0.275,1.473,1.506,1.621,2.654,1.508
		c3.866-0.382,7.244,0.639,10.55,2.717c2.706,1.701,7.14,0.02,8.323-3.021c2.95-7.582,9.268-10.829,16.367-13.153
		c1.128-0.369,2.217-0.019,3.296,0.471c4.465,2.026,6.193,9.679,2.788,13.257c-1.926,2.023-3.624,4.182-4.994,6.565
		c-2.446,4.255-6.083,7.076-10.419,9.091c-3.16,1.468-6.101,3.08-7.307,6.68c-0.196,0.585-0.653,1.161-1.139,1.557
		c-5.009,4.076-9.31,9.047-15.24,11.965c-2.62,1.289-5.117,2.826-7.736,4.117c-2.151,1.06-4.197,1.844-6.912,1.154
		c-2.505-0.636-5.243-0.87-8.014-0.847c-2.868,0.024-6.241-1.031-9.053-2.441c-2.02-1.013-3.56-1.187-5.344,0.22
		c-1.423,1.123-3.084,1.629-4.948,1.809c-2.711,0.262-4.971,1.447-5.966,4.261c-0.161,0.455-0.248,1.074-0.584,1.307
		c-2.849,1.972-6.533,1.219-9.556,2.961c-1.577,0.908-2.939-0.767-4.175-1.84c-2.191-1.902-2.745-3.175-0.712-4.537
		c3.118-2.09,2.789-7.098,7.189-7.856c0.384-0.066,0.928-1.104,0.853-1.61C812.967,303.764,814.991,302.58,816.282,300.985z"/>
	<path style="fill:#4A579F;" d="M481.256,722.694c2.424-0.432,4.033,0.981,5.277,2.746c1.599,2.269,2.971,4.661,5.999,5.33
		c0.802,0.177,1.352,0.941,1.608,1.729c0.782,2.413,2.109,4.248,4.559,5.282c1.167,0.492,1.444,1.754,1.001,2.946
		c-1.145,3.079-0.617,6.399-1.557,9.548c-0.862,2.888-0.421,5.991-0.479,8.982c-0.104,5.368-0.707,10.935-2.568,16.147
		c-0.928,2.6-1.538,5.244-1.975,7.972c-0.562,3.511-1.067,7.189-5.741,7.85c-1.501,0.212-2.23,1.549-1.91,2.938
		c0.613,2.663,0.984,5.412,2.44,7.844c0.646,1.078,1.489,1.609,2.636,1.93c3.207,0.897,4.572,3.354,5.348,6.351
		c0.969,3.74,2.002,7.463,3.058,11.179c1.042,3.668-1.051,7.388-4.905,7.499c-3.865,0.111-6.376,1.999-8.733,4.571
		c-1.66,1.811-3.455,3.441-5.795,4.345c-1.03,0.398-2.09,1.36-3.172,0.518c-1.203-0.936-0.949-2.455-0.498-3.611
		c1.052-2.697,0.555-5.463,0.725-8.198c0.146-2.348-0.598-4.36-1.622-6.482c-1.439-2.984-2.278-6.256-3.391-9.398
		c-0.756-2.133-1.121-4.457-2.62-6.247c-1.425-1.701-1.317-3.62-0.988-5.55c0.352-2.066,0.917-4.094,1.357-6.146
		c0.745-3.473,1.062-6.654-2.811-8.857c-2.79-1.588-1.709-5.008-2.47-7.546c-0.581-1.936-0.507-4.118-0.95-6.197
		c-0.768-3.605,0.096-7.098,1.757-10.366c1.537-3.025,2.862-6.201,4.751-8.993c2.284-3.377,1.59-7.595,3.642-10.987
		c0.581-0.961-0.346-1.847-1.061-2.498c-1.872-1.705-1.45-3.232-0.051-5.073c1.254-1.651,2.173-3.556,3.076-5.471
		C476.31,724.404,478.1,722.404,481.256,722.694z"/>
	<path style="fill:#4A579F;" d="M431.702,1105.414c-0.027,1.953-0.203,3.832-0.79,5.752c-0.794,2.603-2.29,3.335-4.866,4.352
		c-4.564,1.802-6.965,1.071-8.723-3.292c-0.336-0.833-1.297-1.436-2.02-2.089c-3.74-3.372-4.35-7.516-3.452-12.276
		c0.714-3.785,2.113-7.127,4.669-9.97c0.914-1.016,1.224-2.149,1.493-3.474c1.149-5.652-0.974-10.743-2.495-15.938
		c-0.265-0.905-0.778-1.878-1.959-1.909c-1.094-0.028-1.945,0.608-2.193,1.605c-0.531,2.137-1.972,3.71-3.152,5.431
		c-0.891,1.299-2.268,1.871-3.858,1.404c-1.817-0.534-2.348-2.159-2.749-3.725c-0.3-1.173,0.621-1.515,1.591-1.986
		c2.809-1.365,4.293-8.095,2.44-10.534c-0.914-1.203-2.228-1.213-3.548-1.046c-1.495,0.19-1.674,1.335-1.681,2.527
		c-0.011,2.112-0.003,4.192-0.856,6.222c-0.51,1.213-1.198,2.13-2.463,1.816c-3.349-0.832-7.289-0.367-9.471-3.982
		c-0.525-0.87-1.195-1.525-2.218-1.756c-3.326-0.752-5.511-3.34-8.113-5.208c-1.92-1.378-3.994-3.088-2.383-6.056
		c0.137-0.252,0.101-0.661,0.015-0.96c-0.625-2.172-1.012-4.01,0.293-6.421c1.956-3.615,4.65-6.258,7.976-8.243
		c3.332-1.988,10.196,0.095,12.704,3.496c0.806,1.093,0.765,2.858,2.826,2.85c2.144-0.007,4.61,0.305,6.006-1.345
		c3.028-3.58,5.861-3.074,9.667-1.198c2.205,1.087,3.909,2.216,5.718,3.893c3.159,2.929,6.181,6.062,9.755,8.596
		c3.03,2.148,5.185,5.312,7.021,8.535c1.469,2.58,0.545,5.155-1.273,7.204c-3.175,3.578-4.569,7.335-2.35,11.956
		c0.647,1.348,0.29,2.832-0.107,4.287c-0.763,2.802-1.096,5.716-1.674,8.533C430.572,1096.892,431.352,1101.109,431.702,1105.414z"
		/>
	<path style="fill:#4A579F;" d="M679.927,321.309c-6.593-1.244-13.447-1.178-19.613-4.606c-2.331-1.296-5.226-1.658-7.911-2.219
		c-6.338-1.323-12.383-3.536-18.471-5.667c-2.66-0.931-4.208-2.3-4.05-5.211c0.074-1.356-0.321-2.529-1.16-3.616
		c-0.375-0.486-0.865-1.374-0.669-1.736c1.791-3.308,1.044-7.072,2.025-10.493c0.472-1.646,1.596-2.639,3.579-2.688
		c1.583-0.039,3.156-0.938,4.729-0.927c4.659,0.033,9.336-0.126,13.947-0.08c2.8,0.028,5.923,1.025,8.987,1.1
		c2.31,0.056,4.531,0.056,6.226-1.944c0.922-1.087,1.926-0.74,2.97,0.081c2.987,2.348,6.356,3.661,10.21,3.896
		c1.572,0.096,3.272,0.574,4.616,1.378c2.424,1.45,4.748,2.461,7.633,1.519c0.913-0.298,1.92,0.151,2.689,0.846
		c0.241,0.218,0.467,0.453,0.718,0.659c1.134,0.928,6.793,10.641,7.259,12.211c0.511,1.724-0.548,2.443-1.789,2.924
		c-2.34,0.908-3.611,2.395-3.898,5.007c-0.15,1.37-1.143,2.662-1.816,3.958c-1.688,3.248-3.956,5.474-8.045,4.623
		C685.289,319.742,682.735,321.608,679.927,321.309z"/>
	<path style="fill:#4A579F;" d="M283.224,630.115c0.096-2.574-0.568-5.888,1.32-8.859c0.464-0.73,0.361-1.541,0.031-2.333
		c-0.698-1.676-0.131-3.038,0.778-4.541c1.651-2.729,2.48-5.644,0.454-8.664c-0.677-1.009-0.836-2.205-0.004-3.187
		c2.365-2.793,1.354-5.7-0.229-8.108c-1.091-1.66-1.374-3.177-1.399-4.962c-0.042-2.907,0.227-5.816-0.802-8.671
		c-0.495-1.374-0.068-2.787,0.781-4.146c2.801-4.481,4.487-9.288,3.956-14.715c-0.327-3.336,0.675-5.301,4.314-6.923
		c3.343-1.49,7.779-2.703,9.15-7.275c0.299-0.998,1.465-1.725,2.749-1.706c3.34,0.049,7.642,6.812,6.101,9.818
		c-1.842,3.592-4.098,6.938-3.971,11.284c0.048,1.667-1.578,2.9-2.968,3.648c-2.645,1.424-4.947,3.51-6.583,5.682
		c-3.306,4.389-5.766,9.425-7.992,14.504c-0.255,0.581-0.682,1.493-0.443,1.819c2.097,2.845,1.143,6.269,1.942,9.333
		c0.625,2.397,0.741,4.961,4.101,5.889c1.963,0.542,2.685,3.272,3.08,5.26c0.423,2.129,1.257,3.499,3.122,4.55
		c1.277,0.719,2.049,1.886,1.824,3.652c-0.469,3.683,0.57,5.289,3.987,5.058c2.274-0.154,3.748,0.135,4.846,2.037
		c0.613,1.061,1.413,0.956,2.478,0.769c2.1-0.369,3.318,0.943,4.07,2.705c1.048,2.457,0.262,4.328-2.411,4.562
		c-2.883,0.252-4.074,1.392-4.061,4.221c0.008,1.726-1.133,2.667-2.837,2.686c-1.815,0.02-3.578,0.17-5.153,1.152
		c-1.434,0.894-2.317,0.391-3.178-0.92c-1.335-2.03-3.192-2.586-5.508-1.613c-0.724,0.304-1.576,0.418-2.369,0.417
		c-2.447-0.002-3.021-0.722-2.9-3.694c0.026-0.632,0.413-1.34-0.26-1.736c-0.806-0.474-1.544-0.16-2.068,0.611
		c-0.091,0.134-0.18,0.271-0.28,0.399c-0.62,0.794-1.31,1.559-2.422,0.972c-0.953-0.503-1.228-1.47-1.239-2.486
		C283.209,634.651,283.224,632.701,283.224,630.115z"/>
	<path style="fill:#4A579F;" d="M606.165,298.937c-1.104,4.662-3.714,7.17-7.018,9.49c-5.961,4.185-11.803,8.467-18.31,11.849
		c-2.184,1.135-4.691,0.518-6.72,2.421c-3.003,2.816-4.594,6.225-5.66,9.973c-0.368,1.294-0.719,2.44-1.686,3.395
		c-1.254,1.24-2.371,2.382-3.771,0.086c-0.901-1.477-2.138-2.359-4.088-1.471c-1.315,0.599-2.172-0.336-2.62-1.479
		c-0.707-1.805-2.496-3.052-2.609-5.155c-0.036-0.668-0.236-1.346-0.843-1.669c-4.94-2.628-4.838-7.085-4.204-11.678
		c0.245-1.772-0.688-2.825-1.927-3.621c-1.498-0.963-3.145-1.695-4.735-2.513c-1.279-0.658-2.21-1.655-1.692-3.107
		c0.692-1.942,0.189-2.728-1.848-2.743c-1.832-0.013-3.258-0.662-3.086-2.839c0.182-2.297,2.224-4.454,4.129-3.799
		c2.705,0.93,4.558,0.403,6.543-1.489c1.172-1.117,2.275-0.495,2.911,1.116c0.802,2.031,0.939,4.092,0.879,6.216
		c-0.046,1.634-0.093,3.267,1.293,4.513c0.895,0.804,2.065,1.661,3.006,0.791c1.849-1.709,4.475-2.417,5.598-5.143
		c1.352-3.282,1.637-3.224,5.268-1.762c1.048,0.422,1.851,0.17,2.763-0.211c1.345-0.562,2.782-0.933,4.07-1.598
		c5.091-2.628,10.061-1.044,15.05,0.296c4.694,1.261,9.446,2.01,14.328,2.006C602.914,300.81,604.028,299.422,606.165,298.937z"/>
	<path style="fill:#4A579F;" d="M633.293,417.331c5.781,2.034,6.836,4.286,3.961,9.029c-1.106,1.825-0.899,2.846-0.07,4.711
		c2.186,4.911,2.401,9.987-0.315,14.968c-2.247,4.121-4.379,8.267-6.985,12.217c-4.005,6.069-5.796,12.713-4.18,20.26
		c1.893,8.842-1.017,16.612-7.057,23.239c-1.429,1.567-2.779,1.396-4.053-0.216c-2.38-3.012-5.085-5.632-8.34-7.746
		c-2.193-1.424-3.707-8.671-2.35-11.068c1.319-2.328,2.119-4.901,2.294-7.37c0.336-4.718,3.361-7.483,6.181-10.584
		c2.717-2.989,5.368-5.952,9.106-7.797c1.454-0.718,2.277-2.494,2.377-4.099c0.278-4.457,2.312-8.359,3.49-12.527
		c0.914-3.232,0.847-6.749,3.251-9.473c0.184-0.209,0.294-0.701,0.177-0.926C628.213,424.973,632.886,421.655,633.293,417.331z"/>
	<path style="fill:#4A579F;" d="M477.767,580.081c1.917-0.436,3.794,0.456,5.459,1.863c4.246,3.59,7.731,7.708,8.963,13.331
		c0.034,0.157-0.037,0.363,0.041,0.48c4.857,7.307-1.248,12.725-3.286,18.824c-0.473,1.416-1.881,1.586-3.25,1.633
		c-4.675,0.16-9.365-0.397-14.019,0.856c-2.191,0.59-7.294-3.202-7.699-5.576c-0.56-3.281-2.042-6.597-0.283-9.972
		c0.141-0.27,0.206-0.67,0.121-0.953c-1.268-4.184,0.701-7.76,1.925-11.556C467.444,583.726,471.955,580.036,477.767,580.081z"/>
	<path style="fill:#4A579F;" d="M603.655,231.377c-1.024,0.086-1.887-0.379-2.784-0.771c-0.889-0.388-1.905-1.129-2.709-0.962
		c-5.584,1.156-8.78-3.459-13.123-5.252c-1.331-0.55-1.685-1.903-1.947-3.189c-0.193-0.948-0.102-1.989-0.453-2.862
		c-0.574-1.427-2.276-2.587-1.003-4.379c1.356-1.909,3.143-3.705,5.456-3.794c4.5-0.172,8.211-1.568,11.103-5.067
		c0.524-0.634,1.527-1.266,2.143-0.811c3.064,2.262,6.909,0.26,10.157,2.154c2.143,1.249,3.958,2.107,5.125,4.647
		c0.927,2.016,3.48,3.245,5.178,4.956c2.947,2.968,2.831,3.376,0.615,7.083c-2.043,3.417-4.818,5.591-8.749,6.338
		C609.648,230.04,606.657,230.736,603.655,231.377z"/>
	<path style="fill:#4A579F;" d="M338.214,838.673c0.669-3.811,0.717-7.92,5.302-9.587c1.501-0.546,1.152-2.15,1.224-3.418
		c0.056-0.993,0.112-2.031,1.364-2.226c0.867-0.135,1.684,0.282,2.04,1.04c1.405,2.992,3.322,2.742,5.96,1.507
		c3.452-1.617,5.528-1.185,7.449,2.136c2.178,3.765,6.319,4.821,9.104,7.682c0.974,1.001,2.879,1.452,4.577,0.599
		c0.64-0.321,1.266-0.071,1.475,0.714c0.198,0.746-0.199,1.273-0.814,1.56c-0.731,0.341-1.509,0.749-2.285,0.793
		c-2.567,0.147-4.358,1.288-6.09,3.248c-2.066,2.338-4.057,2.562-6.476,0.785c-3.73-2.739-7.241-3.104-11.099-0.451
		c-1.793,1.233-3.664,2.188-5.252-0.53c-0.521-0.891-1.683-0.518-2.684-0.368C339.028,842.607,337.816,841.432,338.214,838.673z"/>
	<path style="fill:#4A579F;" d="M340.65,861.708c-0.516-0.11-1.301-0.283-2.088-0.443c-1.45-0.295-1.807-1.307-1.457-2.539
		c0.405-1.427,1.408-0.838,2.319-0.519c1.019,0.357,2.173,1.562,3.105,0.589c1.548-1.618,4.215-1.812,5.144-4.036
		c0.871-2.085,2.327-2.613,4.253-1.86c1.2,0.469,1.924,1.667,0.737,2.636c-3.027,2.472-6.053,5.013-9.884,6.243
		C342.149,861.98,341.539,862.124,340.65,861.708z"/>
	<path style="fill:#4A579F;" d="M811.805,174.998c-5.398,1.01-10.8,0.738-17.222,0.727
		C798.471,173.143,804.664,172.909,811.805,174.998z"/>
	<path style="fill:#4A579F;" d="M791.516,174.649c-0.684-0.106-1.051-0.357-0.983-0.897c0.063-0.505,0.472-0.754,0.946-0.735
		c0.671,0.028,1.215,0.373,0.985,1.101C792.373,174.404,791.759,174.523,791.516,174.649z"/>
	<path style="fill:#4A579F;" d="M821.133,288.562c-0.106,0.683-0.356,1.051-0.897,0.983c-0.504-0.063-0.754-0.472-0.734-0.946
		c0.028-0.671,0.373-1.215,1.101-0.985C820.889,287.706,821.008,288.321,821.133,288.562z"/>
	<path style="fill:#4C599F;" d="M890.391,572.349c1.783,0,3.566-0.022,5.348,0.011c0.695,0.013,1.266,0.372,1.411,1.088
		c0.203,1-0.413,1.468-1.289,1.667c-1.571,0.357-3.144,0.971-4.722,0.993c-5.766,0.079-10.579,2.128-14.879,5.982
		c-3.678,3.296-8.353,1.678-12.636,1.7c-0.95,0.005-1.295-1.28-0.532-1.796c3.38-2.285,6.058-6.015,10.734-5.792
		c3.043,0.145,5.741-0.416,8.143-2.424C884.443,571.708,887.506,572.356,890.391,572.349z"/>
	<path style="fill:#4C599F;" d="M842.595,391.683c1.916,1.295,3.914,0.515,6.076-0.469c1.724-0.785,4.763,1.031,5.487,2.884
		c0.413,1.058,0.088,1.852-0.877,2.437c-1.143,0.692-2.395,1.234-3.667,0.721c-2.02-0.815-4.093-0.731-6.182-0.8
		c-0.782-0.026-1.671-0.109-2.309-0.497c-1.061-0.646-2.368-1.414-1.73-3.008C839.886,391.72,841.084,391.603,842.595,391.683z"/>
	<path style="fill:#4C599F;" d="M895.614,597.667c-3.388-0.182-6.311-2.5-9.831-2.26c-0.23,0.016-0.68-0.697-0.73-1.107
		c-0.085-0.698,0.358-1.248,1.073-1.354c0.796-0.118,1.653-0.28,2.414-0.109c3.01,0.675,5.971,1.5,9.03,0.138
		c0.762-0.339,1.57,0.177,2.292,0.564c0.746,0.4,1.386,0.894,1.28,1.843c-0.08,0.722-0.614,1.091-1.28,1.274
		C898.466,597.041,897.178,597.889,895.614,597.667z"/>
	<path style="fill:#4C599F;" d="M873.279,595.699c-1.109-0.014-2.095,0.062-2.926-0.528c-0.854-0.606-1.336-1.466-0.922-2.482
		c0.973-2.392,5.26-3.61,7.517-2.196c2.184,1.368,2.123,3.036-0.157,4.296C875.65,595.419,874.451,595.811,873.279,595.699z"/>
	<path style="fill:#4C599F;" d="M928.644,207.776c-4.133,2.941-6.934,2.465-12.099-1.66
		C919.393,204.905,919.393,204.905,928.644,207.776z"/>
	<path style="fill:#4C599F;" d="M676.681,199.288c1.015,0.057,1.929,0.282,1.79,1.628c-0.079,0.768-0.668,1.093-1.341,1.05
		c-1.032-0.066-1.89-0.525-1.875-1.71C675.264,199.426,676.023,199.386,676.681,199.288z"/>
	<path style="fill:#4C599F;" d="M518.453,917.055c1.049,0.055,1.975,0.285,1.823,1.639c-0.055,0.493-0.382,0.953-0.951,0.854
		c-0.942-0.165-2.004-0.408-2.212-1.49C516.949,917.2,517.834,917.184,518.453,917.055z"/>
	<path style="fill:#4C599F;" d="M919.487,217.657c-0.025,0.646-0.404,0.913-0.927,0.935c-1.088,0.045-1.887-0.424-2.134-1.524
		c-0.128-0.568,0.273-0.97,0.825-0.872C918.191,216.363,919.131,216.634,919.487,217.657z"/>
	<path style="fill:#4C599F;" d="M853.934,187.515c-0.118,0.833-0.786,0.861-1.409,0.86c-0.626-0.001-1.375-0.05-1.368-0.898
		c0.007-0.855,0.764-0.876,1.389-0.872C853.168,186.61,853.838,186.633,853.934,187.515z"/>
	<path style="fill:#4C599F;" d="M830.573,391.824c-0.369,0.604-0.935,0.732-1.528,0.474c-0.441-0.192-0.591-0.653-0.343-1.092
		c0.263-0.465,0.756-0.472,1.202-0.352C830.364,390.978,830.695,391.264,830.573,391.824z"/>
	<path style="fill:#4C599F;" d="M1273.171,600.999c0.27,0.115,0.539,0.231,0.809,0.347c-0.117,0.269-0.174,0.69-0.366,0.764
		c-0.195,0.076-0.523-0.189-0.793-0.304C1272.937,601.538,1273.053,601.269,1273.171,600.999z"/>
	<path style="fill:#FDFDFD;" d="M807.667,980.469c0.331,13.998,0.366,27.996,0.026,41.994c-1.686-0.163-2.03-1.274-2.028-2.734
		c0.016-12.168,0.016-24.336,0-36.505C805.662,981.776,805.97,980.641,807.667,980.469z"/>
	<path style="fill:#FDFDFD;" d="M807.719,1039.058c0.409,9.118,0.424,18.236,0.009,27.354c-1.676-0.152-2.068-1.232-2.063-2.71
		c0.022-7.309,0.022-14.618,0-21.927C805.66,1040.301,806.04,1039.214,807.719,1039.058z"/>
	<path style="fill:#FDFDFD;" d="M807.695,1024.412c0.371,3.908,0.382,7.816,0.017,11.725c-0.453-0.159-1.218-0.214-1.31-0.492
		c-1.177-3.563-1.157-7.168-0.014-10.735C806.477,1024.633,807.243,1024.573,807.695,1024.412z"/>
	<path style="fill:#FDFDFD;" d="M807.721,1068.355c0.341,1.957,0.326,3.912-0.023,5.866
		C804.839,1072.258,804.846,1070.288,807.721,1068.355z"/>
	<path style="fill:#4C599F;" d="M483.177,751.798c-1.647-2.837-1.967-5.734-2.615-8.506c-0.291-1.244-0.177-2.713,1.601-2.958
		c1.471-0.203,3.215-0.236,3.712,1.435c0.629,2.113,1.096,4.403,0.957,6.573C486.734,749.879,485.157,750.969,483.177,751.798z"/>
	<path style="fill:#4C599F;" d="M482.403,756.51c-0.124,0.725,0.024,1.786-1.067,1.771c-1.425-0.019-1.729-1.176-1.753-2.353
		c-0.016-0.823,0.174-1.684,1.187-1.748C482.459,754.075,482.304,755.393,482.403,756.51z"/>
	<path style="fill:#4C599F;" d="M395.15,1064.209c-0.117,0.27-0.176,0.688-0.369,0.765c-0.193,0.077-0.522-0.189-0.791-0.304
		c0.116-0.269,0.174-0.69,0.366-0.764C394.551,1063.828,394.879,1064.092,395.15,1064.209z"/>
</g>
</svg>
